<svg xmlns="http://www.w3.org/2000/svg" xmlns:xlink="http://www.w3.org/1999/xlink" viewBox="0 0 2756.41 2661.13"><defs><style>.cls-1{fill:#a87d60;}.cls-2{fill:#fff;}.cls-3{fill:#42210b;}.cls-4{opacity:0.26;}.cls-5{fill:url(#linear-gradient);}.cls-6{fill:url(#radial-gradient);}.cls-7{fill:#3f2004;stroke:#1c0e01;stroke-miterlimit:10;stroke-width:10px;}.cls-8{fill:#1c0e01;}.cls-9{fill:#332922;}.cls-10{fill:#29221c;}.cls-11{fill:url(#radial-gradient-2);}.cls-12{fill:url(#linear-gradient-2);}.cls-13{fill:#391904;}.cls-14{fill:#3a2f27;}.cls-15{fill:#54483e;}.cls-16{fill:url(#linear-gradient-3);}.cls-17{fill:url(#linear-gradient-4);}.cls-18{fill:url(#linear-gradient-5);}.cls-19{fill:url(#linear-gradient-6);}.cls-20{fill:url(#linear-gradient-7);}.cls-21{fill:url(#linear-gradient-8);}.cls-22{fill:url(#linear-gradient-9);}.cls-23{fill:#211106;}.cls-24{fill:#cad3d8;}</style><linearGradient id="linear-gradient" x1="1478.61" y1="3516.82" x2="1900.91" y2="2785.38" gradientUnits="userSpaceOnUse"><stop offset="0" stop-color="#42867e"/><stop offset="0.21" stop-color="#458d85"/><stop offset="0.52" stop-color="#4fa197"/><stop offset="0.89" stop-color="#5ec0b4"/><stop offset="1" stop-color="#63cbbe"/></linearGradient><radialGradient id="radial-gradient" cx="1404.26" cy="2549.46" r="86.7" gradientUnits="userSpaceOnUse"><stop offset="0" stop-color="#ffae9a" stop-opacity="0.48"/><stop offset="0.61" stop-color="#f2d4e9" stop-opacity="0.41"/><stop offset="0.71" stop-color="#f2d5ea" stop-opacity="0.4"/><stop offset="0.79" stop-color="#f4d9ec" stop-opacity="0.36"/><stop offset="0.85" stop-color="#f6e0ef" stop-opacity="0.3"/><stop offset="0.91" stop-color="#f8e9f4" stop-opacity="0.21"/><stop offset="0.96" stop-color="#fcf5fa" stop-opacity="0.09"/><stop offset="1" stop-color="#fff" stop-opacity="0"/></radialGradient><radialGradient id="radial-gradient-2" cx="1392.6" cy="2408.27" r="79.36" xlink:href="#radial-gradient"/><linearGradient id="linear-gradient-2" x1="1660.83" y1="1536.44" x2="1816.74" y2="1536.44" gradientUnits="userSpaceOnUse"><stop offset="0" stop-color="#391904"/><stop offset="0.45" stop-color="#3c1b04"/><stop offset="0.79" stop-color="#452303"/><stop offset="1" stop-color="#502b02"/></linearGradient><linearGradient id="linear-gradient-3" x1="2753.95" y1="2238.05" x2="2753.95" y2="2238.05" gradientUnits="userSpaceOnUse"><stop offset="0" stop-color="#391904"/><stop offset="0.5" stop-color="#3b1a04"/><stop offset="0.68" stop-color="#422003"/><stop offset="0.81" stop-color="#4d2903"/><stop offset="0.91" stop-color="#5e3601"/><stop offset="1" stop-color="#744700"/></linearGradient><linearGradient id="linear-gradient-4" x1="2362.6" y1="2269.63" x2="2362.6" y2="2269.63" xlink:href="#linear-gradient-3"/><linearGradient id="linear-gradient-5" x1="2129.26" y1="2005.28" x2="2129.26" y2="2005.28" xlink:href="#linear-gradient-3"/><linearGradient id="linear-gradient-6" x1="944.57" y1="3261.61" x2="2310.21" y2="896.26" xlink:href="#linear-gradient-2"/><linearGradient id="linear-gradient-7" x1="1542.32" y1="2352.67" x2="1542.32" y2="2352.66" xlink:href="#linear-gradient-3"/><linearGradient id="linear-gradient-8" x1="1872.91" y1="1868.72" x2="1873.49" y2="1867.71" xlink:href="#linear-gradient-3"/><linearGradient id="linear-gradient-9" x1="1202.59" y1="1857.79" x2="1203.67" y2="1855.93" xlink:href="#linear-gradient-3"/></defs><title>alyssa</title><g id="skin_eyes" data-name="skin eyes"><path class="cls-1" d="M2153.81,1933.58c0,86.82,162.14-13.72,152.53,67.64-61.14,517.54-410.63,1148.12-785.69,1131.89C1217.8,3120,915.76,2648.25,866,2105.59c-5.86-63.92,41.1-62.32,41.1-129.68,0-639.09,274.69-1157.19,613.54-1157.19S2153.81,1294.48,2153.81,1933.58Z" transform="translate(-161.35 -602.41)"/><path class="cls-2" d="M1038.68,1980.79c0-87.1,48.9-149.23,104.51-164.7,60.6-16.86,116.56,59,116.56,146.09,0,40.44,1.21,103.6-15.37,131.51-19.13,32.21-21.15,37.37-101.19,32.8-52.9-3-63.2-10.81-91.2-44.19C1033,2059.63,1038.68,2016.52,1038.68,1980.79Z" transform="translate(-161.35 -602.41)"/><path class="cls-2" d="M1927.91,1946.21c-1-88.14-87.3-159.6-188.82-159.6s-183.83,181.45-183.83,269.6,64.79,80.72,183.83,89.59C1875.71,2156,1929,2038.05,1927.91,1946.21Z" transform="translate(-161.35 -602.41)"/><circle class="cls-3" cx="1163.52" cy="1496.2" r="8.24"/><circle class="cls-3" cx="1262.2" cy="1359.31" r="8.24"/><circle class="cls-3" cx="1237.66" cy="1348.64" r="8.24"/><circle class="cls-3" cx="1287.89" cy="1422.38" r="8.24"/><circle class="cls-3" cx="1371.53" cy="1513.27" r="8.24"/><circle class="cls-3" cx="844.17" cy="1619.95" r="8.24"/><circle class="cls-3" cx="914.75" cy="1619.95" r="8.24"/><circle class="cls-3" cx="826.81" cy="1640.81" r="8.24"/><circle class="cls-3" cx="1704.36" cy="1600.87" r="8.24"/><circle class="cls-3" cx="1675.89" cy="1628.18" r="8.24"/><circle class="cls-3" cx="1774.81" cy="1619.95" r="8.24"/></g><g id="Layer_14" data-name="Layer 14"><path d="M1508.16,2429.62c-18.18,40.9-55.55,64.05-98.24,75.59-16,4.33-26,2-40.55-5.79-7.41-3.94-56.67-30.39-52.47-39.79,4.43-9.94,76.47-3.8,88.71-4.4,25-1.23,43.49-8.44,66.1-17.55,8.59-3.46,16.43-7.13,24.81-11.28C1504.68,2422.36,1514.49,2415.39,1508.16,2429.62Z" transform="translate(-161.35 -602.41)"/></g><g id="Layer_15" data-name="Layer 15"><path class="cls-2" d="M1346.31,2486.48c18.66,0,73.39,7.39,130.83-13.42,0,0,26.24-24.77,30.77-42.87a4.11,4.11,0,0,1,.25-.57c6.33-14.23-3.48-7.26-11.64-3.22-8.38,4.15-16.22,7.82-24.81,11.28-22.61,9.11-41.12,16.32-66.1,17.55-12.24.6-81.43-3.69-88.71,4.4C1312.75,2464.22,1346.31,2486.48,1346.31,2486.48Z" transform="translate(-161.35 -602.41)"/></g><g id="Layer_13" data-name="Layer 13"><path class="cls-4" d="M931.62,2011.4l24.46-220.61a10.74,10.74,0,0,0-5.86-6l-4.15-3.45c-26.72-42.16,25.09-73.25-9-182.82-10.65-34.28,21.42-43,26.61-78.06l.12-.28,3.08-4c97.17-71.58,151.38-158.48,157.83-168.66,3.89-6.15,4.86-3.3,12.69-3.25,90.33.62,154.31-104.88,179.26-97.75,107.89,30.83,191.78-34.53,249-44.44,6.08-1,12.55-.16,14.38,6.19,25.17,87.38,120.63,79,166.48,72.4,13.94-2,19.73,1.65,30.76,7.84,4.43,2.49,6.84,7,7.75,12.2,9.46,54,156.71,99.59,162.13,104.64a3.4,3.4,0,0,0,2.64.69c-5.23,34.1.7,61.72,30.86,84.66,27.91,21.22,33.44,13,41.28,49.77l.29,0-.16.25a1.32,1.32,0,0,0-.13.38c-2.22,14.41,1.22,22.51,7.3,27.21-18.38,42.21,2.14,65.49,9.71,71.49,5.69,4.5.87,9-2.62,15.61-9.42,17.91,7.67,18,10.37,17.44,8.59-1.86,9.17-3.28,11.65-.47,11.14,12.63-3,55.88,14.72,135.1,1.06-.74-13.9,25.27-13.9,25.27,1.21.09-1.48,1.92-1.25,3.12,5.42,28.42,35.11,41.48,34.42,43.67l-7.25,14.22c-20.69,28-5.19,38.41-4,47.33l37-9.45,75.05-231.81c-9.45-311.95-219.29-582.08-519.2-668.39h0a648.59,648.59,0,0,0-456.61,36.93h0c-296.94,140.39-469.43,456.28-427,782l22.46,172.33Z" transform="translate(-161.35 -602.41)"/><path class="cls-4" d="M2123.71,2353.59c69.4-58.26,88.64-224.12,87.57-226.64-139.26-328.31-228.43,256.86-254.13,264.84C1957.15,2391.79,2124.57,2355.22,2123.71,2353.59Z" transform="translate(-161.35 -602.41)"/><path class="cls-4" d="M1349.28,2925.12s183.6,115.4,450.2-187l-10.9-88.36c-95.68.94-225.2,263.9-423,254Z" transform="translate(-161.35 -602.41)"/><path class="cls-4" d="M856.71,2238.84c0-2,101.64,119.76,109.84-60.84,1.63-35.86-60.3-95-42.18-125.44l.22-.22,4.37-2.52C817.29,1967.33,856.71,2238.84,856.71,2238.84Z" transform="translate(-161.35 -602.41)"/><path class="cls-4" d="M1995.46,1873.55l367.67-12.29-50.54-59.4c-95.68.94-304.52,16.45-304.52,16.45Z" transform="translate(-161.35 -602.41)"/><path class="cls-4" d="M1473.51,1768l588.54-49.82-78.37,92.9c-166.94-9.89-534,49-534,49Z" transform="translate(-161.35 -602.41)"/><path class="cls-4" d="M926.21,1763l388.74-7,9.92,90.33c-188.13-44.4-404.54,8.79-404.54,8.79Z" transform="translate(-161.35 -602.41)"/></g><g id="Layer_11" data-name="Layer 11"><circle class="cls-3" cx="1217.36" cy="1402.87" r="8.24"/><circle class="cls-3" cx="1287.89" cy="1477.33" r="8.24"/><circle class="cls-3" cx="1178.8" cy="1430.61" r="8.24"/></g><g id="shirt"><path class="cls-5" d="M1848.05,2904.51s-1.25,25.42-62.28,135.9c-126.53,105.27-176.39,81.52-218.76,94.54-204.52-17.14-217.73-183.83-217.73-183.83-472.49,223.61-493.9,140.62-493.9,200.08s965.55,214,1664.47,10.79C2591.41,3141.19,2243.93,3040.62,1848.05,2904.51Z" transform="translate(-161.35 -602.41)"/></g><g id="pupils_mouth" data-name="pupils mouth"><path class="cls-6" d="M1502.24,2480.94c-1.17,120.67-67.79,142.24-111.84,142.24S1282,2612.39,1315.65,2489c6.39-23.49,28.59,36.67,72.64,36.67S1502.48,2456.6,1502.24,2480.94Z" transform="translate(-161.35 -602.41)"/><path class="cls-7" d="M1172.81,1838c12.16-.76,23.93,2.52,34.68,9-.29.26-.59.51-.87.78a53.8,53.8,0,0,0-17,37.55,13.05,13.05,0,0,0-7.68-3c-15.24-.45-28.51,30.39-29.64,68.89s10.31,70.07,25.54,70.52,28.5-30.4,29.63-68.9a163.27,163.27,0,0,0-1.55-28.4c14.28,13.13,34.52,16.59,52.38,10.28.76,5,1.32,10.11,1.64,15.33,4,64.57-28.56,119.13-72.69,121.86s-83.13-47.42-87.12-112S1128.68,1840.7,1172.81,1838Z" transform="translate(-161.35 -602.41)"/><path class="cls-8" d="M1182.93,1882.29a13.05,13.05,0,0,1,7.68,3l3.59,8.91c.71,2.29-.45,8.77,6.72,18.66l6,11.5a163.21,163.21,0,0,1,1.55,28.4c-1.13,38.5-14.39,69.35-29.63,68.9s-26.67-32-25.54-70.52S1167.69,1881.84,1182.93,1882.29Z" transform="translate(-161.35 -602.41)"/><path class="cls-7" d="M1737.47,1838.33c12.12-1.21,24,1.62,35,7.68-.29.27-.57.53-.85.82A53.8,53.8,0,0,0,1756,1885a13,13,0,0,0-7.79-2.75c-15.24.13-27.33,31.45-27,70s12.94,69.63,28.18,69.5,27.34-31.45,27-70a163.93,163.93,0,0,0-2.62-28.33c14.76,12.58,35.12,15.28,52.73,8.29q1.42,7.46,2.21,15.26c6.43,64.38-24,120.13-68,124.52s-84.87-44.24-91.3-108.62S1693.47,1842.72,1737.47,1838.33Z" transform="translate(-161.35 -602.41)"/><path class="cls-8" d="M1749.25,1882.23A13,13,0,0,1,1757,1885l4.14,9.17c.79,8.54,2,13,7.93,18.84l5.71,10.42a163.72,163.72,0,0,1,2.62,28.32c.33,38.51-11.76,69.84-27,70s-27.86-31-28.18-69.5S1734,1882.36,1749.25,1882.23Z" transform="translate(-161.35 -602.41)"/><path class="cls-9" d="M1469.46,2593.33c-1.08,1.08-2.13,2.13-3,3.08a39.23,39.23,0,0,1-6.73,5.8c-4.39,3-9.48,7.57-13,9.48-7.24,3.9-14.36,8.23-22,11.6-13.47,6-23,6.73-37.15,6.53-34.84-.5-56.21-16-70.28-41-4.57-8.09-10.6-77.27,9.52-77.09,12.23.11-6.09,35.91,7.33,71.34,9.48,25,53.16,34.72,80.62,26.43,29.08-8.79,51.37-35.31,60.12-60.34,3.52-10.08,5-78,26.66-60.25,5,4.11-1.71,42.22-3.28,47.64a208,208,0,0,1-8.41,24.27c-2.43,5.68-9.24,13.56-12.13,20.34A38,38,0,0,1,1469.46,2593.33Z" transform="translate(-161.35 -602.41)"/><path class="cls-10" d="M1667,2436.84c-4.9,2.78-9.77,5.12-15.67,5.68-5.59.52-9.61-1.94-13.78-4.57a6,6,0,0,1-2.55-5.14c-.34-8.44,7.85-17.42,16.61-18.06,9.69-.7,16.25,5.06,17,15,.08,1,.06,2,.08,3C1668.14,2434.11,1667.56,2435.48,1667,2436.84Z" transform="translate(-161.35 -602.41)"/><path class="cls-11" d="M1498.28,2408.27s-69.83,37.8-112.85,37.8-98.51-11.24-98.51-11.24,54.87-64.36,97.89-64.36S1498.28,2408.27,1498.28,2408.27Z" transform="translate(-161.35 -602.41)"/><path class="cls-2" d="M1359,2551.05c-3.3-9.29-3.1-17.84-6.92-17.84s-6.92,8-6.92,17.84,3.87,15.54,6.92,17.84C1357.27,2572.81,1368.06,2576.6,1359,2551.05Z" transform="translate(-161.35 -602.41)"/><path class="cls-9" d="M1544.17,2349c-5.53-7.84-20.82,10.28-21.31,13.19-1,5.88,6.44,11.27,5.42,17.16-1.26,7.29-13.81,14.86-19.43,18.76-22.37,15.49-49.46,24.26-75.22,32-43.62,13.13-93.3,2.23-136.36,15.84-16.32,5.16-14.4,12.3-1.5,24.92,17.31,16.93,37.23,32.44,56.23,47.42,45.48,35.87,116.12-1.94,150.44-37a333.58,333.58,0,0,0,31.55-38.21c5.48-7.6,10.13-22.5,17.75-27.77,9.66-6.69,4.56.47,14.16-.9,13.69-2,9.57-4.63,3.09-13.88C1557.4,2384,1547.63,2369.64,1544.17,2349Zm-36,80.62c-18.18,40.9-55.55,64.05-98.24,75.59-16,4.33-26,2-40.55-5.79-7.41-3.94-56.67-30.39-52.47-39.79,4.43-9.94,76.47-3.8,88.71-4.4,25-1.23,43.49-8.44,66.1-17.55,8.59-3.46,16.43-7.13,24.81-11.28C1504.68,2422.36,1514.49,2415.39,1508.16,2429.62Z" transform="translate(-161.35 -602.41)"/><path class="cls-9" d="M1465.16,2409c-8-.86-13.3-6.71-19.73-11.09a99.82,99.82,0,0,0-23.89-11.88c-19.13-6.87-37.55-10.84-57.74-6-17.86,4.28-29.13,13.46-43.59,23.81-5.15,3.69-4.34,8.36-10,4-2.22-1.69,1.59-17.18,2.63-19.31,6-12.26,29.89-20.26,41.83-24.05,16.86-5.35,35.82-7.68,53.32-4.34,15.78,3,35.29,10.37,48.72,19.14C1470.41,2388.23,1478.62,2395.42,1465.16,2409Z" transform="translate(-161.35 -602.41)"/></g><g id="eyebrows_nose" data-name="eyebrows nose"><path class="cls-12" d="M1788,1563.07c-25.71-15.65-58.6-45.81-90.44-24.57-4.92,3.28-32.85,31.29-36.61,10.36-1.2-6.68,8.7-15.31,12.29-20.43,5.87-8.35,14.69-12.23,23.85-18.12,14.36-9.24,35.13-18.81,53-15,14.9,3.19,32.32,19.65,42.94,29.71,7.09,6.72,10.19,13.34,14.19,22,2.55,5.51,10.35,12,9.48,18.29-.59,4.26-7.68,13.12-12.2,13.13C1797.07,1578.43,1795.11,1563.94,1788,1563.07Z" transform="translate(-161.35 -602.41)"/><path class="cls-13" d="M1075.68,1601.35c.14-2.91,9.46-11.44,11.92-14.24,4.21-4.79,9-10.25,14.57-13.95,13.23-8.76,35.92-15.89,51.26-11.57,8.6,2.42,16.54,6.19,25.22,8.41,9,2.31,15.37,5.15,20.62,13.37,10.71,16.78-3.86,22.64-18.9,20.93-10.29-1.17-20.3-1.43-30.52-2.08-7.33-.46-14.82-3.47-22.12-2.22-8.49,1.46-12.35,7.49-18,11.7-6.63,4.94-11.33,8.28-16.58,14.89-3.77,4.75-6.71,6.71-11.44,10.26-3.58,2.68-12.8,12.05-17.63,11.84C1042.94,1647.79,1075.13,1608.46,1075.68,1601.35Z" transform="translate(-161.35 -602.41)"/><path class="cls-9" d="M1409.2,2161c8,45-132.33-51-66.87-50.71" transform="translate(-161.35 -602.41)"/><path class="cls-10" d="M1361.87,1901.62s8.44,2.88,11.21,6.23c6.15,7.45,2.87,15.82,3.92,24.09,2.22,17.39,2.06,36.49.81,54.76-.57,8.28-.53,35.22-6.67,40.79-5.85,5.3-15.26,10.65-15.45-3.65" transform="translate(-161.35 -602.41)"/></g><g id="eyes_nose" data-name="eyes nose"><path class="cls-9" d="M974.62,2079.74" transform="translate(-161.35 -602.41)"/><path class="cls-14" d="M1853.29,2116.27c4.93,38.08-227.71,78.41-232.57,14.06,18.89-14,103.1,15.92,134.74,10.83C1772,2138.51,1848.62,2108.07,1853.29,2116.27Z" transform="translate(-161.35 -602.41)"/><path class="cls-9" d="M1895.71,1762.79" transform="translate(-161.35 -602.41)"/><path class="cls-9" d="M1874.83,1865.91l-.13-.62s.2-.61.19-.6C1876.32,1865.16,1875.59,1865.54,1874.83,1865.91Z" transform="translate(-161.35 -602.41)"/><path class="cls-15" d="M1204.62,1855.05l1.63-.64c-.28-.49-.47-1.28-.86-1.39s-1.06.35-1.6.56C1204.06,1854.07,1204.34,1854.55,1204.62,1855.05Z" transform="translate(-161.35 -602.41)"/><path class="cls-9" d="M1045.09,1946a7.84,7.84,0,0,0,0-6.4C1042.39,1941.76,1041.8,1943.89,1045.09,1946Z" transform="translate(-161.35 -602.41)"/><path d="M1279.48,2001.86c1.88-7.85,4.37-55.84-10.44-118.08-.71-3-8.57-34.71-45.09-71.19-41.32-41.29-83.33-36.19-92.23-32.91-8.24,3-14.08,6-18.6,7.14-18.18,4.38-31-14.9-24.19-32.89,4-10.58-17.63,6.89-21.94,25.07a25.46,25.46,0,0,0,10.18,27.32c-17.68,37.21-31.43,6-31.69-15.62-.12-9.41,2.53-17.89,3-27.08.71-12.72-12.12-6.85-15.59,2.28s-8.1,19.93-8,29.7c.16,17.45,6,45,15.11,64.42,0,0,2,3.61-1.82,4.58-28.61,7.13-30.64-46.7-37.25-59.56-3.56-6.9-11.62-1.41-12.49,15.88-2.47,49,10.61,65.53,15.36,73.5,1.68,2.82,7.06,18.29,16.23,25.47-5.39,39.95-2.36,43.82,10,128.35,1,6.64,6.93,8.45,14,5.92,4.94-1.77,6.33-6,6-10.89-.24-4.26-1.55-8.59-2.18-12.82-.32-2.17-11.75-30.68.24-104.66,25.84-67.41,65.74-101.64,98.45-106.37,33.16-4.79,52.23,14.33,58.44,19.32,12.26,9.85,27.18,24.23,32.42,39,5.17,14.57,30.58,40.34,12.09,175.62-.52,3.83.18,9.42,3.71,12.08,3.69,2.78,5.45.26,8.72-2.07,5.32-3.79,8.94-12.71,10.76-19.52C1274.76,2036.2,1276.19,2034.53,1279.48,2001.86Zm-238-11.31a2.13,2.13,0,0,0,.44.48A2.13,2.13,0,0,1,1041.52,1990.55Zm1.76-108.92a1.74,1.74,0,0,0,.42.72A1.74,1.74,0,0,1,1043.28,1881.63Z" transform="translate(-161.35 -602.41)"/><path class="cls-10" d="M1101.43,2129c-.54-1.45,1.59-11.55.9-12.59,18.2-3.73,34.75,7.65,53.64,8.78,10.31.61,46.52-8.8,40.49,10.64-4.59,14.79-39.12,10.36-50.76,8.41C1128,2141.29,1117.31,2132.31,1101.43,2129Z" transform="translate(-161.35 -602.41)"/><path class="cls-10" d="M1914.68,1822.46l7.28,2.63c.34,2.24,1.08,4.5.93,6.7a5.16,5.16,0,0,1-6.81,4.88c-3.39-1-5.94-3-4.58-7.12A76,76,0,0,1,1914.68,1822.46Z" transform="translate(-161.35 -602.41)"/><path class="cls-9" d="M1536.43,2047.66l0-.07h0Z" transform="translate(-161.35 -602.41)"/><path d="M1983.21,1811.7c-15.18,15.86-34.64,21-51.11,18-19.74-3.65-27.28-22-27.28-22,18.09,1.27,42.72-25.45,42-47.33-1.18-35.69-13.89,7.82-42.33,14.65-30.84,7.4-45.43-5.94-75.16-12.63-40.84-9.18-89.8-5-130,4.37-63.29,14.77-80.41,30.66-112.27,83.86-27.1,45.25-44.28,87.6-51.13,139.4-2.11,16-10.38,68,14.51,73.58,26.46,6,17.44-53.93,20.37-70.2,6.59-36.68,22.4-76,42.85-106,57.72-84.45,204.73-109.2,266.09-13.16,19.09,29.9,26.8,58.85,29,93.41,1.85,29.36,13.41,71.06,28.42,25.32,4.34-13.2,1-60,1-60,22.25-.54,35.45-10.07,41.32-18.22,32.66-45.35-24.83,20.73-48.1-43.52C1970.87,1870.34,1989.78,1833.42,1983.21,1811.7Z" transform="translate(-161.35 -602.41)"/><path class="cls-9" d="M1409.2,2161c8,45-132.33-51-66.87-50.71" transform="translate(-161.35 -602.41)"/><path class="cls-10" d="M1361.87,1901.62s8.44,2.88,11.21,6.23c6.15,7.45,2.87,15.82,3.92,24.09,2.22,17.39,2.06,36.49.81,54.76-.57,8.28-.53,35.22-6.67,40.79-5.85,5.3-15.26,10.65-15.45-3.65" transform="translate(-161.35 -602.41)"/></g><g id="Layer_12" data-name="Layer 12"><path class="cls-16" d="M2754,2238.06l0,0h0Z" transform="translate(-161.35 -602.41)"/><polygon class="cls-17" points="2362.61 2269.64 2362.61 2269.64 2362.6 2269.63 2362.61 2269.64"/><path class="cls-18" d="M2129.26,2005.28" transform="translate(-161.35 -602.41)"/><path class="cls-19" d="M2896.54,2118.47c-42.26,20.24-103.69,31.45-124.32-29.48,2.54-.25,61.81-18.54,96.84-100.48,57.24-133.88-152.34-188.5-142.57-249.43,1.78-11.12,3.05-22.09,6.77-31.37,5.46-13.6,13.44-18.22,27-13.12,8,3,46,20.71,55.45,29.67,10.17,9.66,15.3,20.41,14.5,34.33-.3,5.21-1.16,10.7,2.11,15.52,6,3.36,70.42-48.46,2-131.52-8.55-10.39-19.21-17.06-32.16-21.73-71.22-25.67-115.82,13.17-98.26-127.95,1.53-12.26-9-23.21-18.84-32h.57c-10.5-9.28-25.12-16-39.38-20.88-15.08-5.17-25.32-13.25-38.85-19.78-14.7-7.08-28.37-7.63-41.4-21.63-5.87-6.31-14.67-22.22-12.7-31.38,3.46-16.09,25.43-4.74,40.13-5.49,14-.71,25.79-6.69,37,.48,9.76,6.26,18.16,24.57,19.17,34.65.75,7.45-7.83,18.51,6.19,14.86,5.67-1.48,8.25-6.15,10-11.31,3.49-10.4.35-22-2.27-29.71-3.69-10.94-4.15-10.65-14.34-20.79-7.88-7.84-14.71-6.41-23.43-8.92-7.74-2.22-26.55-4.06-31.53-8.89-9-8.69-1.44-35.37-1.68-46.4-.4-17.76-9.37-29.32-22.11-41.39-19.2-18.19-76.43-12.86-85.69-55.93-2.8-13,2.18-28.35-1.25-41-3.9-14.4-15.66-16.46-23.88-26.23-7.7-9.16-6.34-21.4-17.93-27.25-17.12-8.63-41.56-1.3-60-7.33-24.94-8.17-25.84-32.62-28.14-55-1.27-12.28-1.59-20.62-3.62-31.26-.94-5-1.76-8.05-2.86-10.33-1.64-3.38-7.92-33.63-43-40-23.61-4.33-50.07-4.4-73.62-5.26-17-.63-36.27-4.43-50.46-18.16-5.9-5.72-8.88-16.56-10.14-24.08-1.29-7.77,1.18-16.35-.64-24.33-1.07-4.72,7.26-38.84-33.19-76.4-7.79-7.24-14-13.9-24.57-20.22-8.71-5.19-22.85-8.07-32.77-10.16-15.56-3.28-25.71-6.2-39.51-4.42-72.17,9.31-81.62-9.59-81.07-8.91-20.3-24.79-23.16-60.27-45.18-81.94-16.59-16.33-43-26.08-66.37-33.31-27.94-8.63-50.77-23-77.66-34.54l-6.31-.65c-4.34.76-23.33-4.68-28.12-4.43-12.79.66-27.92,6.43-38.47,13.2-19.8,12.7-21.15,33.4-46.23,26.68-51.1-13.7-88.89-18.22-134.87,14.1-5.88,4.13-21.69,20.79-28.65,21.84-10.83,1.62-28.27-12.63-40.64-14.37-18.29-2.57-42.59-4.09-60.79,1-10.46,2.89-27,9.76-35,17.06-9.65,8.74-17.62,10.61-17.62,10.61-77.22,21.67-93.32,92.94-149,130.14-22.76,15.21-51.45,10.93-74.36,30.55-16.25,13.9-39.07,42.57-46.77,63.12-1.08,2.9-3.33,15.43-4.26,18.49-1.72,5.68-2.45,14.2-5.41,17.27-5.88,6.11-27.41,1.51-35.78,3-22.28,3.87-38.34,11.89-57,24.39-22.21,14.86-39.08,28.42-55.85,49.38-8.51,10.63-19.31,38.15-27.83,44.89-10.64,8.44-20.82,2.55-34.31,3.58-17,1.3-35.82,8.47-52.19,13.34-1.46.43-34.51,16.91-34.51,16.91-33.65,19.49-56.4,44.34-73.58,77.38-4.49,8.64-6.22,19-10.28,28-1.22,2.69-9,28.39-10.8,29.66-29.21,20.3-45.53,17.31-66.28,31.51-14.42,9.87-28.7,22.26-39.2,37.13-9.08,12.84-17.7,33.59-19.69,49-1.76,13.74,7,25.84-4.33,34.46-.68.51-18.5,1.38-21.69,2.14-8.92,2.12-15.33,5.27-20.76,9.86-15,10.11-35.48,27.27-40.2,46.47-3.63,14.8-4,24.93-1.69,29,2.87,25.95,17.24,48.21,17,52.73-.34,6.4-24.62,29.08-32.54,78.12-.67,4.11,3.17,43.61-6.45,46.34-141.68,40.25-113.72,121-113.54,127.93.19,7.44,11,37.52,12.16,40-32.69,36.08-74.56,58.08-67.67,116.13,0,0,5.61,34.58,30.37,51.07,10,6.65,22.3,13.83,14.68,26.49-5.47,9.09-39.72,32.2-37.14,63.33,2,23.65,23.67,28.83,26.3,65.47,1.59,22.09,11.11,17.77,14.64,19.17.74.29,1.33.58,1.87.8-48.58,43.68-113.64,69.78-140.36,159.79-15,56.65,8,133,73.25,142.53,26,3.81,37.84-4.68,32.87,26.56-4.49,28.3-27.34,50.68-15.89,80.91,8.74,23.09,37.06,24.19,35.15,47.37-1.95,23.64-38.41,35.07-43.17,62-11.8,66.68,54.27,79.8,110,85.16-1.45,4.36-2.71,8.45-2.88,11.39-2.06,37,20.86,64.24,50.47,80.32,23.21,12.6,33.08,18,19.5,45.58-10.42,21.17-33.17,41.86,7.13,50,40.77,8.24,135.13-30.81,106.6-87.89-11.53-23.08,18.06,24.28,19,26.67,11.58,30.92,24.7,32,6.25,43.87-62.93,40.66,44.61,101.09,67.63,101,9.31,0,51.73,4.91,127.41-15.62,2.26-1.85,3.61-1,4.41,1.49v.05c17,19.18,52.76,27.76,70.73,34,1.17.41,2.17,3.22,3,7.31.31,37,.55,58.5.35,58.53a5.16,5.16,0,0,0-3.83,3.15c.87,5.31,4.91,8.14,8.68,11.19l7.11,4.57a4.36,4.36,0,0,1,4.88.89c159.9-62.14,248.72-89.18,445.19-172.42,0,0,31.51-10.09,42.71-23.66,3.5,14.71,14.88,49.66,14.88,49.66,34.8,167.63,264,125.75,273.24,125,15.55-1.17,150-5.11,221.65-214.32,1.55-4.54,8.63,2.88,12.87,4.41,6.38,2.32,12.66,5,19,7.8,133.49,59,298.39,93.33,430.26,133.35,5.37,42.92,40,38.21,48.3,34.89a227.61,227.61,0,0,0,23.83-10.9c58.1,21.56,104.95,46,132.58,76.93,1.67,1.87,4.46,1.32,6.35-.82,3.37-3.8,3.79-13,.07-16.67-8.82-8.66-13.63-21.71-24.25-27.77-28.15-16.05-61.3-31.47-97.47-46.25a13.38,13.38,0,0,0,.63-2.64h0s4.31-7.28-14.73-4.57a22.39,22.39,0,0,1-3.32.22q-6.42-2.52-12.93-5c-13.41-12.14-12-42,8.72-41.63,7.18,1.2,15.56-6,18.82.67,16.47,33.89,54,34.38,69.13,31.54a156.13,156.13,0,0,1,16.84-2.23c4.19-.32,8.93-1.62,11.85,3a6.6,6.6,0,0,1,1.75,1.12l5.11-1.14c7.24-14.82,4.54-19-14.2-23.81a33.22,33.22,0,0,1-11.49-5.36c-5-3.66-8.55-8.27-8.83-14.73a36.34,36.34,0,0,1,6.14-22.52c19.38-27.65,40.51-2.36,66.39-28.37,2.81-2.82,5.36-3.58,8.78-2.42,7.12,2.43,83.71,23.66,127.83-29.37,87.6-105.29-129-157-148.07-222-3.38-4.11.67-11.92.7-12,4-2,28.74-39.19,30.86-67,133.42-8.61,62.91,72.05,12.51,58-.5-.14-1.4,0-1,1.4,4.55,7.2-5.51,14.33-6.24,18.49-1.49,8.54,2.41,14.21,11.22,14.59,4,.17,8,0,12,0,.07,0,62.91-3.19,142.43-87.39,0-.07,0-.14,0-.21,32.9-1.3,32.81-23.9,64.6-55.32,14.89-14.72,11.05-48.67,5-68.43-4.3-14-13.4-24.45-22.8-34.45-6.19-6.59-15.45-10-24.39-12.65-12.39-3.7-25.16-5.1-38-6.29-6.48-.6-7.94-2.51-9.91-9.08-2.74-9.14-4.37-18.62-8.7-27.29-5.46-10.92-15.91-21.08-28.17-29.24-3.75-.17-7.53-.72-11.2.62a19.64,19.64,0,0,0-2.25,13.36c8.84,51.59-69.85,79.21-56.41,6.22,2.85-14.71,6.86-33.59,151.07-49.76,23.26-2.61,32.73-32,35.45-55.62,6.19-53.68-95.17-71.86-46.63-103.24h0c8,1.06,117.32,44.82,170.08-60.73C2918.76,2121.94,2919.59,2107.43,2896.54,2118.47ZM964.59,2335.11h-.05c.08-.16.14-.37.21-.53-.24-.11-.52-.34-.72-.33a.37.37,0,0,1,.17-.21c.2-.07.52.2.78.33C964.86,2334.63,964.79,2335,964.59,2335.11ZM1637,3113c-12.13,1.53-224.82,38.47-267-120.28-8.08-26.71-10.93-50.27-12.8-59.28,4-5.26,7.18-29.92,8.36-29.69,131.69,12.37,207.37-46.42,421.42-253.25,2.32-2.25,4.82-2.66,4.79.83-1.69,179.54,44.31,246,43.87,249.92C1769,3104.59,1637,3113,1637,3113Zm646.3-95.38c17.07,2.8,30.3,6.39,30.56,19.26C2303.08,3033.16,2292.91,3026.63,2283.33,3017.65Zm326-100.73c-6.47,12.28-32.33,9.48-46.54,7.14-3.94-.65-8.3-1.79-8.72-5.66-4-36.94-88.31-71.54-81.75-97.87.68-2.74,2.4-3.22,4.31-1.82C2525.89,2855.08,2648.3,2843,2609.35,2916.92Zm-627.14-543.7c-14.17,3,51.16-150.81,47.69-153.7-4.08-3.4-25.49-13.16-33.49,19.19-2.62,2.78-27.18,123.67-135.83,275.14-4.13,5.76-51.41,68.69-120.25,140.91a14.21,14.21,0,0,0-4.32,4.51c-81.29,84.63-191.29,180.54-295.76,211.8-10,3-21.4,2.79-32.21,2.82-161.83.35-267.62-181-403.7-420.57-52.06-91.68-37.5-205.12-36.51-222.17.22-3.81-1.49-12.77,14.13-61l-28.25-22.39c-2.82,57.7-8.18,104.22-10.73,101.56-6-6.29-11.55-12.59-16.63-18.87l-36.47-42.77L866,2105.59a24.51,24.51,0,0,1,6.53-24.49L886.85,2033c13.2-12.74,61.77-34.41,63.53-52.67l24.46-254.61a10.71,10.71,0,0,0-5.86-6l-4.14-3.45c-26.73-42.17,25.08-73.26-9-182.82-10.66-34.28,21.41-43,26.6-78.06l.12-.28,3.08-4c97.17-71.58,151.38-158.48,157.83-168.66,3.89-6.15,4.86-3.31,12.69-3.25,90.33.62,154.31-104.88,179.26-97.75,107.89,30.83,191.78-34.53,249-44.44,6.08-1.06,12.56-.16,14.38,6.19,25.17,87.38,120.63,79,166.48,72.4,13.94-2,19.73,1.65,30.76,7.83,4.43,2.49,6.84,7,7.75,12.21,9.46,54,156.72,99.58,162.13,104.63a3.4,3.4,0,0,0,2.64.7c-5.23,34.1.7,61.72,30.86,84.66,27.91,21.22,33.44,13,41.28,49.77l.29,0-.16.25a1.16,1.16,0,0,0-.13.37c-2.22,14.42,1.22,22.52,7.3,27.21-18.38,42.21,2.14,65.5,9.71,71.49,5.69,4.5.87,9-2.62,15.61-9.42,17.91,7.67,18,10.37,17.44,8.59-1.85,9.17-3.27,11.65-.46,11.14,12.62-18.52,82.27-.77,161.48q3.18-2.22,0,0c4.36,29.82-19.54,43.44-20.25,45.67h0c-20.69,28-12.44,52.62-11.28,61.55,1.56,1.64-38.37,271.87-39.26,281,.19,1.49-.06,11.21-.24,14.79-.54,10.6,8,14.23,14.53,19.3,3,2.34,6.27-1.06,9.51-.85,0,0,21.8-27.34,86.33-189.52C2222.66,1870.93,2306.75,2304.67,1982.21,2373.22Z" transform="translate(-161.35 -602.41)"/><path class="cls-20" d="M1542.3,2352.66l0,0,0,0Z" transform="translate(-161.35 -602.41)"/><path class="cls-21" d="M1873,1867.52s-.19.6-.19.6l.13.63C1873.72,1868.37,1874.45,1868,1873,1867.52Z" transform="translate(-161.35 -602.41)"/><path class="cls-22" d="M1203.52,1855.86c-.44-.13-1.06.34-1.6.55l.83,1.47,1.63-.64C1204.1,1856.75,1203.91,1856,1203.52,1855.86Z" transform="translate(-161.35 -602.41)"/></g><g id="Layer_10" data-name="Layer 10"><path class="cls-23" d="M2053.4,2775.1h0Z" transform="translate(-161.35 -602.41)"/><path class="cls-23" d="M2059.59,2457.55l.32.11Z" transform="translate(-161.35 -602.41)"/><path class="cls-23" d="M2761,1961.64l.15.15v-.06Z" transform="translate(-161.35 -602.41)"/><polygon class="cls-23" points="2588.27 1668.79 2588.26 1668.79 2588.27 1668.79 2588.27 1668.79"/><path class="cls-23" d="M2755.53,2237.31h0Z" transform="translate(-161.35 -602.41)"/><polygon class="cls-23" points="2232.55 1629.14 2232.55 1629.14 2232.55 1629.14 2232.55 1629.14"/><polygon class="cls-23" points="2370.26 1954.79 2370.26 1954.8 2370.26 1954.79 2370.26 1954.79"/><polygon class="cls-23" points="2444.45 2061.09 2444.45 2061.09 2444.45 2061.08 2444.45 2061.09"/><polygon class="cls-23" points="2364.18 2268.89 2364.18 2268.89 2364.17 2268.89 2364.18 2268.89"/><polygon class="cls-23" points="2452.19 2246.86 2452.19 2246.86 2452.19 2246.86 2452.19 2246.86"/><polygon class="cls-23" points="2166.16 2402.89 2166.16 2402.89 2166.16 2402.89 2166.16 2402.89"/><path class="cls-23" d="M2212.66,2923.14c.05-.22.09-.43.14-.65C2212.73,2922.79,2212.69,2923,2212.66,2923.14Z" transform="translate(-161.35 -602.41)"/><path class="cls-23" d="M2898.11,2117.72c-42.27,20.25-103.69,31.46-124.33-29.48,2.55-.25,61.82-18.54,96.85-100.47,57.24-133.88-152.34-188.51-142.57-249.44,1.78-11.12,3.05-22.09,6.77-31.37,5.46-13.6,13.43-18.22,27-13.12,8,3,46,20.71,55.45,29.68,10.17,9.66,15.3,20.4,14.5,34.32-.3,5.22-1.16,10.71,2.11,15.52,6,3.37,70.42-48.46,2-131.52-8.55-10.39-19.21-17.06-32.16-21.73-71.22-25.67-115.82,13.17-98.26-127.95,1.53-12.25-9-23.21-18.84-32h.57c-10.51-9.28-25.12-16-39.38-20.88-15.08-5.16-25.32-13.25-38.85-19.77-14.7-7.09-28.37-7.64-41.4-21.64-5.87-6.31-14.67-22.22-12.7-31.37,3.46-16.09,25.43-4.75,40.13-5.5,14-.71,25.79-6.69,37,.48,9.76,6.27,18.16,24.57,19.17,34.65.75,7.45-7.83,18.51,6.19,14.86,5.67-1.48,8.25-6.14,10-11.31,3.49-10.4.35-22-2.27-29.7-3.69-11-4.15-10.66-14.34-20.8-7.88-7.83-14.71-6.41-23.43-8.91-7.74-2.23-26.55-4.06-31.53-8.9-9-8.69-1.44-35.37-1.68-46.4-.4-17.76-9.37-29.32-22.11-41.39-19.2-18.19-76.43-12.86-85.69-55.92-2.8-13.05,2.18-28.36-1.25-41-3.9-14.39-15.66-16.46-23.88-26.22-7.7-9.16-6.34-21.41-17.93-27.25-17.12-8.64-41.57-1.3-60-7.33-24.94-8.17-25.84-32.63-28.14-55-1.27-12.29-1.59-20.62-3.62-31.27-.94-5-1.76-8.05-2.86-10.32-1.64-3.39-7.92-33.63-43-40.06-23.61-4.33-50.07-4.4-73.62-5.26-17-.63-36.27-4.42-50.46-18.16-5.91-5.72-8.88-16.56-10.14-24.08-1.29-7.77,1.18-16.35-.64-24.33-1.07-4.72,7.26-38.84-33.19-76.4-7.79-7.23-14-13.89-24.58-20.21-8.7-5.19-22.84-8.08-32.76-10.17-15.56-3.28-25.71-6.2-39.51-4.42-72.17,9.31-81.62-9.59-81.07-8.91-20.3-24.79-23.16-60.27-45.18-81.94-16.59-16.33-43-26.07-66.37-33.31-27.94-8.63-50.77-23-77.67-34.53l-6.3-.66c-4.34.77-23.33-4.67-28.12-4.43-12.79.66-27.92,6.43-38.47,13.2-19.8,12.71-21.15,33.4-46.23,26.68-51.1-13.69-88.89-18.22-134.87,14.1-5.88,4.13-21.69,20.8-28.66,21.84-10.82,1.62-28.26-12.63-40.63-14.36-18.29-2.57-42.59-4.09-60.79.94-10.46,2.89-27,9.77-35,17.07-9.64,8.74-17.61,10.6-17.61,10.6-77.22,21.68-93.32,92.94-149,130.14-22.76,15.21-51.45,10.93-74.36,30.55-16.25,13.91-39.07,42.57-46.77,63.12-1.08,2.9-3.33,15.44-4.26,18.49-1.72,5.68-2.45,14.2-5.41,17.28-5.88,6.1-27.41,1.5-35.78,3-22.28,3.87-38.34,11.88-57,24.38-22.21,14.86-39.08,28.42-55.85,49.38-8.51,10.63-19.31,38.15-27.83,44.9-10.65,8.43-20.83,2.54-34.31,3.57-17,1.3-35.82,8.47-52.19,13.34-1.47.44-34.51,16.91-34.51,16.91-33.65,19.49-56.41,44.34-73.58,77.38-4.49,8.64-6.22,19-10.28,28-1.22,2.69-9,28.39-10.81,29.66-29.21,20.31-45.52,17.31-66.27,31.51-14.42,9.87-28.7,22.26-39.2,37.13-9.08,12.85-17.7,33.59-19.69,49-1.77,13.74,7,25.85-4.33,34.46-.68.52-18.5,1.39-21.69,2.14-8.92,2.12-15.33,5.28-20.76,9.86-15.05,10.12-35.48,27.27-40.2,46.47-3.63,14.8-4,24.93-1.69,29,2.87,26,17.24,48.22,17,52.73-.34,6.4-24.62,29.08-32.54,78.12-.67,4.12,3.17,43.61-6.45,46.34-141.68,40.25-113.72,121-113.54,127.93.19,7.44,11,37.52,12.16,40-32.69,36.08-74.56,58.07-67.67,116.12,0,0,5.61,34.58,30.37,51.07,10,6.65,22.3,13.84,14.68,26.5-5.47,9.08-39.72,32.2-37.14,63.32,2,23.66,23.66,28.84,26.3,65.47,1.59,22.09,11.11,17.77,14.64,19.17.74.3,1.33.58,1.87.81-48.58,43.67-113.64,69.78-140.36,159.79-15,56.65,8,132.95,73.25,142.52,26,3.82,37.84-4.68,32.87,26.56-4.49,28.3-27.34,50.68-15.89,80.92,8.74,23.09,37.06,24.18,35.15,47.36-1.95,23.64-38.41,35.08-43.17,62-11.8,66.67,54.27,79.79,110,85.15-1.45,4.37-2.71,8.45-2.88,11.4-2.06,37,20.86,64.23,50.47,80.31,23.21,12.6,33.08,18,19.5,45.58-10.43,21.17-33.17,41.86,7.13,50,40.77,8.24,135.13-30.81,106.6-87.88-11.53-23.08-11.17-40.38-37.21-56.65-15.08-9.42-50-18.2-56.9-34.08-9-20.83,17.23-25.65,32.29-31.47,16.23-6.27,23.51-4.84,25.54-25.65,0,0-20.71-3.42-18.45-3.19-10.59-1.05-15.75-1.43-27.76,4-34.78,15.65-53.24,52.26-21.06,79.14,23.9,20,65.05,22.86,71.52,59.27,3.06,17.23-4.58,33.4-16.85,45.29-6.23,6-44.48,33.07-50.5,23.49-9.36-14.91,25-42.7,11.62-65-11.23-18.67-27-17.27-42.63-24.68-60.64-28.7-35.84-88.71,7.9-134.41,8.44-8.82,18.62-23.36,46.63-23.09,9.89.1,50.77-2.4,58.54,10.32a27.53,27.53,0,0,1,2.72,5.91,9.87,9.87,0,0,1,0,6c-20,64-4.86,85.62-4.63,86.06,6,6.94,12.53,13.54,18,20.91,5.14,6.93,10.31,13.83,16.36,19.91,5.58,5.6-5,23.79.55,57.78.42,2.52,2.37,4.38,3.27,6.77,11.58,30.92,24.69,32,6.25,43.87-62.93,40.67,44.6,101.09,67.63,101,9.31,0,51.73,4.92,127.41-15.62,2.26-1.85,3.61-1,4.41,1.49v.06c17,19.17,52.76,27.76,70.73,34,5.15,1.77,7.84,4.49,9.42,10.07,2,6.85,4.55,13.13.28,19.85h0c-10.5,1.19-8.42,19.09-9.07,22.5l6.48-2.09a43.42,43.42,0,0,1,11.47-2.06l23.09-1.52c17.17-1.31,27.6-9.86,27.6-9.86,2.79-2.84,5.65-5.62,8.34-8.56,10.89-11.86,19.74-25,24.53-40.52,2.41-7.83-3-27.24-3.35-29.53a36.45,36.45,0,0,0-11.8-21.26c-6.88-6.3-13.1-13.54-15.36-22.85-4.5-18.57-8.81-38.38,27.3-59.58,5.18-2.68,4-5.78.59-9-3.67-2.05-6-3.66-2.37-7.08,7.46.55,14.5-.16,19.69-6.49-6.06-6.19-14.4-7.09-22.09-9.47-2.6,6.36-8.25,7-13.34,5.33-8.49-2.7-36.23-10.15-50.78-16.15-3-1.23-7.86-1.7-5.49-10.59.73-2.75-11.67-1.08-8.59,11.86,9.9,29.58,23.89,12.7,48.93,23,8.34,3.41,12,12.9,12,12.9a4.62,4.62,0,0,1-2.66.25,12.36,12.36,0,0,0-10.51,3.44c-39.39,40.26,6.47,95.74,11.37,101.1,11.7,12.79,12,29.17,4.44,41.1-4.6,7.28-18.32,6.45-24.69,12.35-6.77,7.74-.48,29.21-18.4,29.58,0-.14,0-.27,0-.41-16.47-23,25.76-52.45-58-65a31.61,31.61,0,0,1-22.88-15.52c-3-5.37-7.31-11.26-12.92-15.43-13.14-8.23-23.12-24.68-7.94-34.74,16.89,32.65,33.92-70.51,21.89-91.18-14-24-54.91-18.26-64.51-44.55-6.11-16.76,19.12-45.9,18.35-63.19-24.92-29.86-51.58-43-50-89.69,1.14-33.22,17.41-57,34-83.69h0c-.06.31,1.15,1.33,2.36,2.47a23.46,23.46,0,0,0,5.75,4.13c3.76,1.87,7.8,3,11.64,2.1,14.47-3.25,29.07-2.25,43.62-2.78a18.07,18.07,0,0,1,7.67,1.46,114.24,114.24,0,0,0,10.89,3.78A34.34,34.34,0,0,1,833,2626.17a77.47,77.47,0,0,1,6.47,14.85,12.23,12.23,0,0,0,.45,1.33c3.11,7.61,7.93,6-2.26,28.55-25.6,58.84-16,114.43-9,137.54,9.2,30.38,18.28,46.06,53.88,63.09,20.47,9.79,78.4,14.19,87.08,38.13,6.17,17-5.63,27.39-16.41,37.38-1.65.44-3.47.7-4.45,1.76-6.53,7-13,13.66-23.13,15.51-2.83.51-2.46,4.6.64,5.93,2.69,1.16,5.75,1.45,8.08,3.49l4.5-1.07s0-.09,0-.13c25.3,4.52,18.19,10.76,38.22-13.47,11.84-14.34,24.62-52.88,14.43-70.44-10.46-18-8.51-23.4-15.57-34-7.39-11.13-18.54-20.17-25.38-31.29-27.27-44.31,5.39-82.71,5.51-132,.08-31.06-2-77.44-16-105.09-32.83-64.93-81.13-34.73-134.67-63.53-23.7-12.74-23.62-26.48-16.31-41.44a16.62,16.62,0,0,0,1.29-2.52c5.7-10.65,14.53-21.91,20.7-33.87,6.05-11.71,6.21-31.63,18.78-32,24.53-.71,10.72,21.84,12.36,31.68,2.15,12.88.1,31.33,20.75,49.68,18.42,16.38,83.95,14.69,89.29,28.19.47-2.17,18.8.58,8.53-25.41-7.65-7-14.71-9.23-19.73-13.56a2.76,2.76,0,0,0-1.71-1.66c-3.4-3.72-5.55-9.13-5.82-19.22-.63-24.06,31.47-33,12.13-57.63-11,2.94-23.78,30-26.73,38.6-2.27,6.64-.08,49.5,1.66,48.56-3.56,4.22-41-7.63-41.35-7.89-14.52-10.6-16.17-21.63-16.71-38.61-.45-14,7.2-28.69,10.19-42.15,6.37-28.66,13.29-60.87.79-89.82l-59.23-62c-15.17-23.75-6.23-22.63,2.13-45.1,1.46-3.93,17-12,17.45-15.24,5.36-37.94-18.34,2.45-29.26-.05-2.94-.67-38.11-93.84-64.58-44.05-3.59,6.77,12.38,25.93,12.35,33-.06,14.38-4.77,19.08-12.18,30.9-13.81,22-39.14,33.37-47,59.84-17.74,59.87,82.94,72.22,53,123.49-13.84,23.67-7.56,17.58-21.2,5.32-1.88-1.7-49.28-39.9-57.49-44.82-16.06-9.62-23.67-24.35-22.68-43.13.36-6.64,1.28-13.41,5.61-18.85,11-13.86,18.33-29.88,26.49-45.4,6.54-12.44,11-25.27,11.78-39.65.75-13.12-12.32-25.33-22.63-27.89-8.55-2.11-12.51,1.18-12.91,10-.15,3.26-1,6.1-1,9.75-.37,39.17-95.72,69.15-62.75,165.77l-.54.54c-26.49,13.33-31.53-.82-59.88-1-23.12-.05-27.11-35.89-28.26-44.2-.66-4.77-5.54-6.91-18.51,2.17-11.95,10.55-19.68,24.05-21.3,39.48-1,9.79-.51,20.76,4.38,30.11,4.27,8.18,4.47,14.93-1.34,22.76-7.43,10-14.48,20.49-19.08,32.22-5.66,14.43-7.56,29.54-6.64,45,.46,7.7,1.21,7.81,8.46,5.58,5.41-1.66,8.44-4.93,9.66-10.28s10.46-22.63,22.8-4.33c3.18,4.71,6.4,9.1,7.85,14.8,2.62,10.34,4.14,20.84,6,31.3.23,1.26,1.37,29.85-1.69,43.15-1.15,5-23.73,80.47-28.51,83.77-33.2,22.9-8.78-35.61-8.51-45.39.59-21.13-14.6-43.13-25.78-57.77-37.09-48.55-73.33-69.87-29.6-127.61,14.44-19.07,44.69-51.31,7-45.36-6.18,1-58.17,45.57-54.68,33.85,16.95-57,81.6-64.37,95.31-73.33,19.83-13,73.07-44.76,80.88-67.55,11.16-32.53-39.23-59.73-15.72-84.77,9.77-10.42,32.07,1.78,35.47-16.13,3.5-18.42-31.24-21.62-44.21-23.33-21.74-2.85-49.32-3.51-63.85,16-17.6,23.62-.43,39.88,3.73,61.5,5.32,27.68-2.38,31.64-9.1,45.5-6,12.43-20.49,16.32-32.93,22.31-26,12.52-61.83,41-76.2,50.94-17.17-8.78,40.18-49.27,44.33-53.16,15.65-14.68,15.65-14.68,27.45-37,3.5-7.4,17-59.2-6-46.64-1.6.88,0,26.64-.91,28.76-9.58,21.82-20.93,33.68-38.58,49.89-35.61,32.71-55.12,62.95-53.22,106.61,1.08,24.61,25.35,32.08,38.3,52.47,32.42,51-33.29,48.72-26.24,94.87,6.35,41.61,69.57,27,80.34,58.38,7.46,21.73-48,59.12-58.1,75.73a32.19,32.19,0,0,0-6.36,13.31c-3.75,17.63,2.31,37.56,15.78,49.5,6,5.32,19.35,6.09,22.52,14.07a11.2,11.2,0,0,1,.33,5.39c-6.48-.44-20.58-.87-49.73-3.33-19-1.6-37.19-6.9-41.52-27.63-1.82-8.68.11-16.7,4.2-24.32l.16-.13V2702c17-31.25,70.28-55.65,50.8-91.09-10.81-19.65-42.54-13.66-51.39-38.75l18.68-65c7.48-25.81-9.45-32.18-10.09-55.73-.73-26.69-16.05-24.19-20.19-25.81-92.64-36.21,6.29-132.59,54.84-168.93,64.42-48.22,138.87-132.82,114.75-223.54-8.52-11.18-27-37.68-37.88-9.24-2,5.16-2,12-1.95,18.71a12.91,12.91,0,0,0,0,2.06,65.92,65.92,0,0,1-.75,12.68c-7.63,37.6-37.33,65-64.36,91-1.46-1.28-4.13-2.5-8.49-3.55-2.33-.56-15.25,8.26-14.71,1.6,2.95-36.38-23.47-36.41-10.16-86.15,5.29-19.75,11.74-21.11,18.27-24.84,20.42-11.67,38.36-55,1.26-42.57-12.69,4.25-25.38-6.24-31.16-20.21-6-14.4-.15-36.58.84-51.42,3-44.83,76.16-87.07,121.29-149.44,4.38-6.06,13.38-8.86,19.67-12.81,16-10,32.5-17.38,48.26-27.71A272.85,272.85,0,0,0,523.5,1691c6.33-6.66,11.87-13.65,15.93-21.94,1.85-3.78,10.63-15.55,11-42.22.07-5.09,1.3-14.84-.91-19.45-7.36-15.36-39.91,49.17-105.51,50,4.73-25.22,18.53-48.1,29.32-71.18,9.6-20.51.66-28.26,29.41-68.39,1.35-1.89,25.45-28.06,34.55-24.18,7.1,3,4.68,41.64,35,85.69,29.17,42.33,97.32,52.58,87.51,105.42-2.08,11.16-6.22,20.92,1.28,31.06,7,9.42,16.2,10.84,17.44-1.58,1-10.43-1.18-18.1,5.19-27.56,6-8.9,15.54-15.51,23.27-22.78,19.27-18.15,35.5-37.17,34.78-63.52-.2-7.53,14.38-62.83-104-77-15.83-1.89-23.56-21.22-22.23-37.11a69.29,69.29,0,0,1,6-23c6.86-11.38,16.75-21.3,26.78-29.73,22.2-18.66,41.74-21.32,43.22-49.45.25-4.64-6.39-5.77-5.36-11.35.84-4.49,11.93-13.66,14.62-16,11.42-10.19,11-15.22,21.47-26.45a17.33,17.33,0,0,1,4.12-3.26l31.69-18.13a21.34,21.34,0,0,0,6.15-7.14c2.44-4.67,4.63-10.64,7.13-14.29,10.86-15.84,56.18-62.27,28-84.61-15.4-12.21-14.94,19.8-17.86,29.58-5.9,19.74-23.24,49.9-41.29,62.45-6.21,4.32-14.25,5.65-21.15,9-34.33,16.83-55.13,44-61.3,54.76-24.19,42.18-49.51,38.76-69.43,64.71,0,0-4.94-9-6.93-14.54-3.79-10.61,19.22-28.29-6.12-40.19,1.39-63.57,45.17-97.46,96.7-102.19,33.67-3.1,87.64-.74,95.35-46.53,2.12-12.59.42-22.7-15-14.85-9.58,4.88-2.28,7-9.1,13.64a13.49,13.49,0,0,0-1.16,1.23c-13.81,16.66-37.4,38.67-42.65,7.5-3.15-18.66,13-66.45,26.21-80.2,19-19.79,50.9-33.23,76.35-38.84,19.71-4.34,42.19-3.54,61.33-7.94,3.39-.78,33.79-7.93,21.13-19.27,2.83-4.2,5.37-8.46,8.24-11.83,15.72-18.38,28.84-41.83,48.36-57.71a277.82,277.82,0,0,1,44.58-30.08c13.13-7,28.3-8.83,45.62-10.29,8.15-.69,29.66-2.56,34.69-6.11,2.3,10.51,4.44,20.35,3.92,28.1-1.64,24.56-31.44,18-22.93,27.35,15,16.47,28.67.93,46.8,17l-.93,19.57a15.33,15.33,0,0,1,8,.64,37.87,37.87,0,0,0-8-.63c-16.82,38.83-71.55,63-111.42,55.48-19-3.57-42.42-13.25-40.64-36.67,2.21-29.09,25.38-15.3,43.53-9.82,18.64,5.64,95.68,11.72,92.74-24.84-1.92-23.94-18.51,6.26-22.35,10.08-5.49,5.45-13.43,6.07-22,7.07-29.31,3.4-47.62-14.71-73.78-15.66-12.17-.44-32.36,5.58-36.37,18.45-4.24,13.65,5.4,42.8,16.39,52.21,28.42,24.36,76.68,20.61,110,2.93,13.19-7,25.19-17.16,37.28-25a79.77,79.77,0,0,0,15.4-12.94c-7,20.71-16.14,65.8,8.72,123.49,7.57,17.56,7.32,28-1.41,43.55q-7.44,13.26-15.53,26.24c-9.63,15.4-21.26,29.49-29.87,45.54-30.85,57.51-139.74,136.05-176.52,183.22-3.69,4.74-10.54,7.52-7.39,15.18a.69.69,0,0,0,.52.4c6.9.76,12.67-2.26,18.39-5.56,4.23-2.45,34-24.81,40.13-28.94,2.48-1.67,5.09-.7,3.1,5.64-12.85,41,8,77.56,9,80.7,7,22.2,9.63,103.93-34.28,132a.58.58,0,0,0-.27.56l.32,3.08a.6.6,0,0,0,.36.49c1.6.75,6.87,5.07,15,2.15,8.07-2.57,11.74-9.39,12.39-8.64,6.63,7.72,2.59,11.19,3.74,19.42a7.89,7.89,0,0,0,6,6.2c8,1.44,20.93,3.69,20.93,3.69a1.45,1.45,0,0,0,1.53-1.94,10.74,10.74,0,0,0-5.86-6l-4.15-3.45c-26.72-42.16,25.09-73.25-9-182.82-10.65-34.28,21.42-43,26.61-78.06a.5.5,0,0,1,.12-.28l3.08-4c97.17-71.58,151.38-158.48,157.83-168.66,3.89-6.15,4.86-3.3,12.69-3.25,90.33.62,154.31-104.88,179.26-97.75,107.89,30.83,191.78-34.53,249-44.44,6.08-1,12.55-.16,14.38,6.19,25.17,87.38,120.63,79,166.48,72.4,13.94-2,19.73,1.65,30.76,7.84,4.43,2.48,6.84,7,7.75,12.2,9.46,54,117.71,79.59,123.13,84.64,3.61,3.37,17.29-6.21,15-7.21-119.91-50.93-104.57-137.08-158.91-129.32-169.31,24.19-123.36-71.58-201-69.13-76.78,2.42-244.44,46.69-248.17,45.19-5-2-9.47-.28-14.41,1.23-39.29,12-109.44,110.4-161.16,95.69h0c21.87-33.52,2.06-71.92-6.42-75.67-45.12-19.94-17.71-60.92-27.08-106,0,0-.4-.22-1-.55-2.63-20.17-7.33-40.58-15-59.88-10.74-27.1-27.32-56.06-22.78-88.28,3.79-26.83,19.34-48.39,42.1-62.37,12.94-8,58.41-14.37,57.91-15.17,2.18,3.48-3.46,23.95-30.4,47-14.41,12.34-25.92,29-28.4,47.28-1.77,25.19-1.45,34.24,6,38.91,30,18.85,9.21-26.92,13.72-32.54,13.73-17.13,60.31-16.41,73.7-47.8,6.68-15.65-11.2-57.82,2.77-84.67,7.35-14.14,18-22.37,28.53-32.86,26-25.79,90.36-52.48,112.35-83.9a27.93,27.93,0,0,1,12.84-10.15,60.43,60.43,0,0,1,11.67-3.36c16.83-2.75,31.47-3.86,48.53-1.19,31.53,4.92,63.47,34.81,70,33.54,27.51-5.36-28.37-31.41,21.25-49.61,12.76-4.69,23.72-12.65,37.24-15.62,12.14-2.67,22.18,1.1,33.82-1.38,23.13-4.92,100.47,26.77,82.73,1.63,25.69-29.73,43-37.11,61.35-34.21,8.79,1.39,29.9,4.29,35.9,9.94,4.29,4,6.89,11.2,1.63,14.26-16.11,10.52,19.72,29.38,26.07,35.82,11.17,11.34,12.91,17.22,16.6,32.4,6.44,26.51,26.79,70.67,47.9,89.06,16.29,14.2,39.16,16.6,57.36,18.62,10.68,1.18,34.48,12.5,42.62,7.18,16.35-10.7-4.1-13.32-10.74-19.1l.11-.1-.28-.05c-3.09-2.82-2.85-6.39,6.42-12,8-4.86,25.24,6.1,51.77,1.69,11.53-1.92,25.27-6.75,38.07-3.16,11,3.08,18.3,12.43,28.72,19.37,15.18,10.13,28,20.28,38.25,35.08,8.37,12.11,16.78,23.13,18.86,37.18,2.54,17.28,1.38,58.52,3.57,63.71,4.59,10.84,13.4,14.21,22,20.72,7,5.35,15.43,15.54,24,17.3,15.34,3.14,41.12-6,58.09-7.94,12.59-1.48,26.36-2.07,39.07,0,26.64,4.33,31.62,41.34,32,57.1a94.69,94.69,0,0,0,8.46,37.65c12.86,27.76,33.21,38.44,36.78,38.22,81.93-5.06,34.48,19.16,77.2,46a43.31,43.31,0,0,1,19.24,29.3c3.37,19,18.41,43.94,30,51.77,17.05,11.56,45.56,3.41,62.32,12.91,15.61,8.84,30.4,35.06,19.44,53.45-12.2,20.47-12.86-11.48-19.75-21.45-4-5.84-41-35.21-33.74-8.9,1.46,5.24,11.28,9.6,14.82,14.48,7.51,10.35,9.35,20.13,7.24,32.72-3.14,18.85-8.4,39.95-7.57,57.31,1,21.4,19,37.22,39.09,48.57l-.31.14,1.1.31c23.08,12.84,48.77,19.87,55,22.71,2.27,1,4.41,1.93,6.47,2.73,4.22,2.36,9.06,3.5,13.58,5.29,15,5.9,24,17.7,28.83,32.15,2.87,8.61,5.29,18.38,3.64,27.49-29.71,163.48,125.26,87,153.93,167.07,1,2.92,6.77,21.62,6.18,28.64-1.87,22.08-4.65,5.56-10.62,2-44.19-36.34-85.07-57.6-134.61-69.62-80.9-19.63-30.54-118.78-60.63-173.06h0c-6.66-7-13.51-2-17.1.09-1.18,5.9,3.69,10.39,7.71,15.16C2659,1524,2601,1602.91,2666.85,1655a78.41,78.41,0,0,0,30,14.51c9.82,2.5,18.93,7.72,28.45,11.49,4,1.59,4.32,3.9,2,6.82-54.36,67.57-83.8,117.85-25.78,215.08,6.94,11.63-5.6,33.45-7.64,38.92l-.15.09c-5.67,9.79-55.22,26.89-94,8.86a18.15,18.15,0,0,1-5.67-4c-4.1-4.4-5.86-14.28-5.86-14.28-10.32-43.52,26.45-88.79,33.58-135.35,3-19.81,7.71-38.37-.22-57h0c-1.81-5-11.26-20.49-15.28-24.33-12.27-11.75-25.81-21.1-42.28-26.51-18.4-6-37.45-10.79-53.85-21.87,0,0-6-5.39-8.77-11.64a27,27,0,0,1-2.29-10.28c-1.36-48.28,32.75-100.84-20.69-116-32.93-10.24-63.35.54-165.91-58.36l.33,0c-18.54-11-24.49-34.84-24-55.11.5-22.35,16.75-40,25.87-59.84,11.34-24.63,24.32-54.82,25.92-84.17,1.53-28.29-5.19-55.92-30.49-67.88-16.18-7.65-59.17-6-63.8,19-6,32.64,43.07-1.09,53.26,1.17,34.82,7.72,13.16,46.25,9.37,65.16a215.25,215.25,0,0,1-18.78,54.75c-5.38,10.57-14.56,24-17.8,35-7.29,24.6-10.65,64.65,6,88a36.6,36.6,0,0,0,6.22,7.47c62.7,72.84,185.31,58.44,199.25,90.79,15.58,36.14-24,87.81-.4,112.66h0c19.18,16.72,76,17.12,116.18,51.55h0c28.89,34.8-26.2,131.36-26.34,133.46h0c-42.46,123.49,54.66,111.81,69.07,111.73,4.33,0,11.76-1.24,20.76-3.13,4.39-.92-6.91,14-10.11,17-1.47,1.37-3.13,3.49-7.37,4.8h0c-33.48,10.43-57.31,11.69-89.77-22.28-1.45-4.76-34.21-23.9-10.91-107.48l15.83-76.9a47.54,47.54,0,0,0-.89-18c-3.51-14.28-10.09-29.22-23.59-36.06-17.43-8.83-72.74-11.08-118.71-37.07-26.87-18.81-6.3-47.66-8.43-76.9-.85-11.71-2.23-22.81-10-33.4-10.58-14.47-58.94-21.74-77.47,11.3-3.91-4.5-19-10.31-36.68-12.82-5.13-1-42.95-5.58-52-11-16.79-8.06-36.59-40.88-28.27-89.25l-.07-.19c3.54-21.13,5.6-43.75-4.57-63.36-8.78-16.92-22.44-18.56-35.92-29.89-11-9.24-28-34.11-30.66-48.15-4.16-21.93,11-58,18.69-78.69,13-35.25,23-87-9.2-115.37-5.3-4.67-19.81-16-27.72-10.18-4.5,3.29-4.81,13.26-1.66,17.57,4.26,5.82,14.06,3.48,19.56,7.88,6.27,5,7.41,11.56,9.68,18.94,10.54,34.3-8.66,77.53-21.69,109.54-7,17.28-20,40.16-11.77,58.9,4.47,10.13,15.12,17.19,20,27.25s7.42,8.44-2.4,11.13c-18.56,5.06-47.31-4.26-57.53-20.73-5.07-8.16-6.66-18.14-6.9-27.54-.12-4.92,4.74-19.43.69-24.15-11.95-13.92-17.61,16-17.78,24.78A62.37,62.37,0,0,0,2060,1383c18.9,23.11,46.67,24.52,76.7,25.12,50.29,1,54.1,35.59,49.88,76.51-.35,2.27-.68,4.54-1,6.82-3.14,25-1.59,103,54.64,106.91,7.24.18,59.65,3.74,77.25,19.48h0l5,4.92,1.1.42c28.25,22.36,32,47.77,29.32,72.22-.48,4.44-1.65,8.09-6.6,8.5a1,1,0,0,1-1-.7c-3.57-13.74-35-64.67-90.64-79.4-2.61-.69-8.91,8-2.3,11.87,4.11,2.42,6.79,4.72,7.64,9.35a6.7,6.7,0,0,0,5.64,5c14.27,1.6,61.16,22.26,61.14,69.27h0c-3.15,3.08-6.61,4.53-10.8,2.27a1,1,0,0,1-.36-.33c-4.25-6.55-9.26-12.9-13-19.4-7.9-13.89-21.15-21.47-31.92-31.83l0,0c-37.11-31.2-89.71-34.19-118.66-61.81-37.29-33.23-13-106.07-34.74-127.22a52,52,0,0,1-5.94-6.74,45.48,45.48,0,0,0-10.08-10c-34.49-36.58-98.35-44.08-110-100.48-8.41-40.63,20.26-77.49,23.28-116.28,1.27-16.45-2-36.6-11.12-50.48-17.67-26.77-14.42-.44-25.37-1.08-17.33-1,2.09-59.12,4.57-68.86,6.67-26.12,12.23-49.12-6.35-71.07-26.72-31.57-81-5-95.55-36.86-13.18-28.76,14.12-83.18,18-112.79,4.42-33.78,4.4-60.55-20.37-83.75-17.2-16.11-39.8-24.69-54.33-43.49-18.07-23.37-14.66-43.46-21.23-69.76-7.4-29.62-27.1-52.94-57.55-48.68-6.58.92-19.86,3.94-29.59,9.24a3.81,3.81,0,0,0-2.48,1.45,30.77,30.77,0,0,0-4.57,3.47c-8,4-22.51,11.83-19,20.21,6.11,14.72,26.91-2,33.69-3.64,47.27-11.21,52.74,1.94,60,44.24,3.11,18,11.62,22.46-3.12,31.21-7.62,4.53-20-9.32-56.41-5.29s-50.4,2.45-93.34,14.49c-37.14,10.17-75,38.56-18.21,47.41,23.51,3.67,113,10.42,124.24-20-16-15.6-113.23,29-125.65,5.46-7.92-15,33.86-17.17,46.84-20.44,21.34-5.38,47.42-1.62,69.77-2.8,15.8-.83,35.93,3,49.13,1.82,8-.68,18.81-6.73,26.27-4h0c5.1,9.43,14.21,19,22.68,26.08,21.25,17.68,44.39,32.69,50.86,59.44,4.26,17.55-.51,38.65-4,52.26-9.05,34.9-26.68,93.66-2,132.32,16.57,25.91,63.68,14.44,70.36,46.4,4.45,21.27-15,51.89-17.56,73.6-3.19,26.59,2.14,68.47,18.6,88.79,8.43,10.39,31.63,21.68,35.72,33.11,3.41,9.54-3.88,26.28-5.76,35.57-7.76,38.45-3.65,69,29.21,94,27.91,21.22,33.44,13,41.28,49.77l.29,0-.16.25a1.22,1.22,0,0,0-.13.38c-7.24,47,45.64,26.89,54.51,40.2a1.1,1.1,0,0,1,.17.5c9.12,107.22,35.51,129.29,40.63,132.57l.08.05c42.91,23.06,61.39.48,113.65,35.42,22,16.23,38.55,36.51,44.13,46,4.07,6.89,44,79.19,8.18,117.66v0c2.17,4.17,4.48,2.2,9,2.14,11.91-.17,22.32-19.68,26.28-24.51a1,1,0,0,1,1.41-.09c8.78,8.39,10,19.66,13.15,30,11.94,27.31,51.86,21.37,60.9,47.21,3.67,10.5,6.29,21-1.22,31.11-81.08,109,6.48,134.09,6.48,134.09,5,1.49,5.75,6.35,8,10,0,3.83-1.08,29.16,2.69,50.28,1.48,66.53-66.79,63.48-83.42,169-5.59,35.43,2,40.07,6.93,45,8.44,8.39,10.51,17.72,9.69,28.71-1.24,16.4,6,30,13.51,44,11.88,22.19,23.24,52.34,49.17,20.34,4.09,44.9,107,85.95,113.65,144.65,5.61,43.83-83,227.52-85,231.6-4.32,9.06-5.85,18.6,0,26.64,18.66,25.45,87.63,62.37,78.42,91.72-4.92,15.66,8,27.94-59.61,30.77-2.75.12-5.79,4.23-8,1.26-2-2.78,0-6.45,2.37-8.89,6.45-6.74,6.21-15.69,7.59-23.87,1.12-6.66-2.3-12.48-6.45-18.18-16.5-22.65-45.22-35.6-51.88-41.33-11.46-9.85-24.83-22.11-19.28-38.26,28.73-83.6,103.75-165.71,74.22-254.92-2.46-7.43-23.79-69.93-56-60.59-3.32,9.63-2.72,18.07,7.19,23.68,15.51,14.83,23.58,41.11,26.71,61.32,2.87,18.52.91,41.05-2.8,61.56-5.29,29.24-54.29,102.49-59.14,130.64-.58,3.33-4,5.39-8.07,3.77l-.43.43c-21.73-73.37,43.49-170.12,12.31-235.23-4.77-9.95-20.59-52.61-72.58-118.34-.08-.09,0-.24-.13-.32-1.78-1.44-110-142.85-12.65-227.39a.39.39,0,0,1,.64.12c2.83,8.22,7.55,13.18,16.41,11.88l3.5-.51c.16,0,.19-.21.31-.32,11.57-10.9,2.69-27.67,2.68-27.71-14.95-42.85,71.69-38,26.33-86.13-19.71-27.42,13.07-36.13,14.11-64.1v-.06c-.22-2.52,2.12-24.83-14.83-39a52.6,52.6,0,0,1-9-9.64c-8.4-11.73-20.84-23.28-30.33-24.93l-3.07,2.28c1.88,37.65-41.26,54.35-44,95.41-1.68,15.8,2.06,30.08,12.76,42.12,3.26,3.67,3.4,7-.11,10.37-41.12,16.2-34.67,51.83,5.59,60.29,1,.69,2.58,2.54,2.18,3-99.61,120.86-40.45,187.15,19.51,273.2,103.79,148.94,62,144.45,43.21,299.44l.37-.54-.29.43a.42.42,0,0,0-.07.24c3,67.64,28.83,95.46,29.06,95.85a44,44,0,0,1-6.63,16.05c-14.62,21.52-27.71,57,20.14,91h0c6.9,2.57,2.7,8.85,1.66,12.14-.9,2.84-2.09,5.62-2.77,8.51-2.38,10.12-8.72,15.21-19.05,15.46-3.12,1-12.76,2.79-19.35,12.86a64.13,64.13,0,0,0-5.44,17c-1.07,6.79-.61,13.09,1.72,18.83q-7.76-2.85-15.6-5.66c0-86.06-135.41-12.82-108.46-123.62.77-3.18,40.22,22.95,46.17,24.48,10.7,2.75,43.76,7.52,51.23-5.41,17.12-29.61-12.32-17.26-14.6-20.63-20.07-29.64-25.12-38.33.84-77.1,20.93-31.25,47-68.58,4.28-97.21-46.74-31.31-68.35-36-42-93.11,26.82-58.18,37-74.78-18.76-114.87-31.36-22.54-35.57-31.74-16.9-67.2,4.87-9.25,29.08-34.28,30.8-43,7.32-37.2-21.88.49-22.48,1-18.11,14.6-32.69,35.24-37.72,57.87-7,31.3,7.35,53.05,32.38,71.57,11.23,8.31,34.55,9.87,40,28.75,7,24.15-26.35,54.57-35.25,76.42-11.95,29.35-10.21,66.82,16.25,86.8,14.11,10.65,39.45,10.84,43.78,14.35a38.61,38.61,0,0,1,5.11,4.83,12.59,12.59,0,0,1,2.9,7.28c1.16,16.63,3.3,19-8,36.94-6.83,10.83-17.22,19.88-23.42,30.61-8,13.84-10.77,20.61-10.25,31.55.19,4.05,6.17,51.19,7.28,50-15.75,17.5-44-40-45-43.9-4.11-16.08.66-30.2,4.51-43.31,12.24-41.76,25.32-56-2-88.74a29.92,29.92,0,0,1-2.12-2.87c-16.3-24.92-41.88-39-7.68-100.07,7.57-13.52,11.55-21.68,15-35,8-31.31,2.55-28.62-17.73-50.55-25.46-27.54-52.66-52.65-44.94-93.23,6.49-34.1,82.58-83.53,12.66-60.26-64.47,21.46-110,7.84-147.48,77.77-16.2,30.19-44.39,79.31-47.38,114.66-3,35.72,16,65.24,47.73,78.49,10,4.17,66.36,10.61,68.33,5.08-11.2,31.5-53.1,128.1-36.33,152.89a21.76,21.76,0,0,1,3.85,12.27c0,29.92,65.48,13.25,72.81,18.81,17.61,13.39-30.33,70.12-28.89,101.26,27.89,5.44,35-41,46.58-62.14,16.06-29.23,27.62-53.53-15.41-60.67-29.44-4.89-48.49,11.93-58.9-27.73-5.06-19.33,4.91-39.62,10.15-57.71,5.4-18.65,9.75-36.13,18.82-54.84,12.39-25.54,55.35-56.22,23.7-59.63-15.36-1.65-34.83,12.94-50.2,15.72-26.37,4.78-58.22,1-75.44-24.65-18-26.79-2.82-55.05,7.67-81.92,17-43.68,37.69-92.85,78.83-113.78,45.07-22.93,74.1-5.93,48.78,39.45-12.07,21.65,4.66,12.15-31.47,20.55-11.34,2.64-31.93,4.54-42.1,10-33,17.64-39.6,69.48-21.87,101.41,21.94,39.51,60.32,2.62,82.25-24.37,27.38-33.7,33.7-61,65.39-13.51,19.68,29.49,11.55,20.34-6.66,49.31-20.69,32.9-12.95,50.61-15.45,84.78-1.94,26.55-27.74,47-24.21,75.72,4.71,38.32,41.13,37.5,49.86,70.35,7.79,29.36-3.27,73.41-2.47,69.73-28.93,124.66,102,72.25,102.8,113-201.89-70-442.07-123.44-461.2-159.5-15.79-29.77-25.82-62-32-93.56,7.06-1.45,17.19-2,38.24,7.3,7.12,3.16,13.72,6.2,12,14.46C1846.36,2930,1998,2899,2015.05,2900.8l22.4-1.93a94.45,94.45,0,0,1,21.52.6l12.56,1.78c2.07-10.32.06-16.44-3.54-24.13-4.07-5.67-17-23.62-39.06-30.56-17-5.34-7.55-22.72-4.11-29.07,55.71-102.61,29.8-119.71-38.55-155.64a29.12,29.12,0,0,1-9.73-8.26c-20.41-27.26,11-45,23-112a90.6,90.6,0,0,0-2.31-41.78c-4.49-15.13-11.36-37.19-19.38-55.43l-2-3.76-24,1.17c37.45,46.12,24.05,84.94,1.44,125.36-38,92.06,19.14,117.38,19.14,117.38,11.82,8.39,24.43,15.64,35.63,24.91,17,14.06,19.7,28.07,11,46.4-.5,1.06-11.85,24.13-15.36,33.78-5.45,15-10.92,29.9-10.66,46,.21,13.34,6.44,24,16.6,32.5,2.44,2,10.2,7.35,6.61,6.62-40.12-8.11-124.2,27.74-118.66-87,.28-5.84-3.92-12.17-10.14-12.61-30-2.08-57.5-11.61-60.09-12.07a82.6,82.6,0,0,0-8.65-1.09c-11.73-81.61.72-153.35,4.07-157.16,81.55-92.83,134.5-193.87,135.14-196.37,1.44-5.61,4.87-7.52,10.47-5.95,204.94-8.64,245.53-227.63,246.37-230.15,60.69-234.94-76.38-194.57-80.81-194.37l-.11,0h0c2.47-4.39-.15-47.56-4.18-49.79-1.81.8-9.45,2.41-11.65,3.47,5.91,96-87.65,237.38-89.92,236.79-3.54-.93-1.55-3.8-1.13-5.82,2-9.75,31.36-266.47,36.12-278.82,4.79,2.31,8.43,5.51,10.49,10.44,4,3.45,7.69.66,11.47-.47,6.21-4.48,3.12-9.91,1.58-15.19-22.61-10.33,5.73-77.27,5.48-77.64,4.77-17-20.82-77.24-5-129.48,13.49-44.6,2.48-70-1.9-81.12-.58-.15-17.18-37.06-43.79-61.91-6.48,44.28,10,39.4,17.83,45.58,5.69,4.5.87,9-2.62,15.62-9.42,17.91,7.67,18,10.37,17.44,8.59-1.86,9.17-3.28,11.65-.47,11.14,12.63-18.52,82.27-.77,161.49h0c4.37,29.81-19.53,43.43-20.24,45.67h0c-20.69,28-12.44,52.63-11.28,61.55,1.55,1.64-38.37,271.88-39.26,281,.19,1.49-.06,11.21-.24,14.79-.54,10.59,8,14.22,14.53,19.29,3,2.34,6.27-1.05,9.51-.85,0,0,32.35-15.88,96.88-178.05-.11-2.21,3.2-8.89,6-9.15,94-26.79,74.85,94.55,57,165.52a311.55,311.55,0,0,1-59.2,119.81c-55.47,68.84-110.67,76.66-147.89,84.81-14.14,3.1,51.16-150.8,47.69-153.7-4.08-3.4-25.49-13.15-33.49,19.19-2.62,2.78-27.18,123.68-135.83,275.14-4.13,5.76-51.42,68.7-120.25,140.92a14.1,14.1,0,0,0-4.32,4.51c-81.3,84.63-191.29,180.53-295.76,211.79-10,3-21.4,2.8-32.21,2.82-161.83.35-267.62-181-403.7-420.57-52.07-91.67-37.5-205.11-36.51-222.17.22-3.8-1.49-12.76,14.13-61L955.28,2147c-2.83,57.7-8.18,104.22-10.73,101.56-98.53-102.9-66.52-207.14-36.08-212-.31-1.71,3.47-21.38-.6-26.79-87.88,40-41.07,158-38.51,166.44a303.71,303.71,0,0,0,27.79,53.57c-22.9,27.81-18.29,52.84-12.6,66.51a30.89,30.89,0,0,0,16.4,16.51,56.28,56.28,0,0,0,38.79,2.16c.62,65.16,35.56,148.65,78.69,227.16-5.1,28.27-14.67,66.68-5.23,88.3,8,18.29,39,31.51,32.54,50.09-28,81,37.5,75.62-29.58,138-27.54,25.62,7.74,69.1,45.65,88.86,17.76,9.25,47,14.81,67,17.12,7.34.85,62.14-7.56,33.05-19.47-16.46-6.73-47.13-33.64-49.41-50.88-3.29-24.85-8.52-38.82,28.2-75.74,7.25-7.28,9.74-20,9.73-33.22,18.62,25.1,30.6,40,30.6,40,1.77,2.85,7.65,10,17.68,19.79-21.57,1.25-28.4,36.29-26.78,44.38,2.7,13.46,14.44,23.18,14.31,39.52-.25,29.34-15.51,60.86-2.58,89.28,5.68,12.5,11.35,19.82,21.87,21-39.36,17.08-88.54,37.46-150.31,60.32-18.18-24.46-62.32-36.63-79.73-80.36-1.66-4.15-12,15.39-14.84,20.07-11.31,18.35-14.73,73.58-1.14,94.1-35.26,11.89-73.66,24.26-115.48,37-1,.3-3.54,0-4.91.26a5.15,5.15,0,0,0-3.83,3.16c.87,5.3,4.91,8.14,8.68,11.19l7.11,4.56a4.36,4.36,0,0,1,4.88.89c159.9-62.14,248.72-89.18,445.18-172.41,0,0,31.52-10.09,42.72-23.66,3.5,14.7,14.88,49.66,14.88,49.66,34.8,167.62,264,125.74,273.24,125,15.55-1.17,150-5.11,221.65-214.32,1.55-4.53,8.63,2.88,12.87,4.42,6.38,2.32,12.65,5,19,7.79,133.49,59,298.39,93.34,430.26,133.35,5.37,42.92,40,38.21,48.29,34.89a227,227,0,0,0,23.84-10.9c58.1,21.56,104.95,46,132.58,76.93,1.66,1.87,4.46,1.32,6.35-.82,3.37-3.8,3.79-13,.07-16.66-8.82-8.66-13.63-21.71-24.25-27.77-28.15-16.06-61.3-31.48-97.47-46.26a13.29,13.29,0,0,0,.63-2.63l0,0s4.31-7.27-14.73-4.57a22.48,22.48,0,0,1-3.32.22q-6.42-2.52-12.93-5c-13.41-12.14-12-42,8.72-41.63,7.18,1.2,15.56-6,18.82.68,16.47,33.88,54,34.37,69.12,31.53a156.62,156.62,0,0,1,16.85-2.22c4.19-.32,8.93-1.63,11.85,3a6.4,6.4,0,0,1,1.75,1.13l5.1-1.15c7.25-14.82,4.55-19-14.19-23.81a33,33,0,0,1-11.49-5.35c-5-3.67-8.55-8.28-8.83-14.73a36.37,36.37,0,0,1,6.14-22.53c19.38-27.65,40.5-2.36,66.39-28.37,2.8-2.82,5.35-3.58,8.78-2.41,7.12,2.42,83.71,23.65,127.83-29.38,87.59-105.28-129-157-148.08-222-3.37-4.11.68-11.92.71-12,4-2,28.74-39.19,30.86-67,133.42-8.61,62.91,72.05,12.51,58-.5-.14-1.41,0-1,1.41,4.55,7.19-5.52,14.32-6.24,18.49-1.49,8.54,2.41,14.21,11.22,14.58,4,.17,8,0,12,0,.07,0,62.91-3.19,142.43-87.38,0-.08,0-.14,0-.22,32.9-1.29,32.81-23.9,64.6-55.32,14.89-14.72,11.05-48.67,5-68.42-4.3-14-13.4-24.46-22.8-34.46-6.19-6.58-15.45-10-24.39-12.65-12.39-3.69-25.16-5.09-38-6.28-6.48-.61-7.94-2.52-9.91-9.09-2.74-9.14-4.37-18.62-8.7-27.28-5.46-10.93-15.91-21.08-28.17-29.24-3.75-.18-7.53-.73-11.2.61a19.58,19.58,0,0,0-2.25,13.36c8.84,51.59-69.85,79.22-56.41,6.22,2.85-14.71,6.86-33.59,151.07-49.76,23.26-2.61,32.73-32,35.45-55.61,6.19-53.69-95.17-71.87-46.63-103.25h0c8,1.06,117.32,44.82,170.08-60.73C2920.33,2121.19,2921.16,2106.68,2898.11,2117.72Zm-2353,681.45c-29.92-25-7.37-45.43-1.5-83.48,2.2-14.31-7.94-13.24-5.36-22.11.69-2.34,13.71,3.07,16-4.77,10-33.57-22.41-45.11-5.26-81.19,15.7-33,48.65-49.16,43.66-92.21-1.34-11.5-23-37.55-20.9-43.82,1.34-3.92,16-4.18,29.37-3.63-.31,1.52-.54,3-.71,4.29-.22,1.73-3.91,3.34-4.87,4.8-2.49,3.81.52,8.34,4.24,10.55,29.21,17.38,43.29,87.8,13.76,106.76-43,27.59-35.29,78.86-35.28,81.19,0,13.42,4.48,25.13,10.16,37.54,23,50.26.57,77.81-11.88,78-18.36.21.29,31.06-2.65,33.69C574,2824.74,558,2809.91,545.14,2799.17Zm66.38-177.45c-1.56,13.29-7.78,22.64-10.93,33-.57,1.89-4.62,19.88-7,18.93-2.08-.83-.26-19.2.08-21.23C595.66,2640.73,600.1,2630.37,611.52,2621.72Zm97.49,326-4.68,5.36c-4.29,9.31-6.79,10.84-15.9,8.38a58.88,58.88,0,0,0-15.65-2.4c-7,0-12-4.54-13-10.44-1.63-10.55-4.55-21.45,1-32.06,3.41-6.52,4.93-7.5,12.47-6.5,8.39,1.11,16.05,3.62,22.79,9,3.09,2.45,6.75,4.18,10.2,6.16C716.18,2930.89,717.15,2938.78,709,2947.72Zm3.46-92.08c10.81,17.23,25.27,12.05,40,21.35,8.89,5.59,23.51,24.05,25.56,34.58,3.31,16.9-15.31,35.89-10.34,50.95l.12.37c-14.83,20.89-34.13,8.69-40.62,45.41-.47,2.64-2.15,4.81-5.29,5-3.34.22-18.69-17.47,14.39-72.3,11.32-18.76-5.55-37.82-28.43-43.12-6.44-1.49-37.48.52-43.87-28.88h0c0-4.17.64-42.36,22.61-35.46,5.06-.77-1.89-9.35,1.07-11.27,4.57-3-9.76-6.19-15.69-3.48-9,4.08-12.29,12.72-17.4,19.92-10.37,14.61-17.1,37.52-4.8,56,3,4.48,1.48,8.41-1.74,12.63-21.43,28.07,6.26,62.37,6.88,63.31,5.64,8.64,25.24,6,30,16,.09.79,1.58,5.05,1.35,7.89-6.36,78.65-161.73-8.36-65.79-56,5.12-2.53,4.8-8.34,4.12-13.45-3.62-.58.12-11.54.12-11.54l0-.07a6.84,6.84,0,0,0-5.26-9.1c-17.33-2.86-24.35,17.7-25.63,15.35-13.88-25.59-37-45.1-21.41-72.91,20.58,6.5,24.28,1.88,24.28,1.88-7.13-2.57-14.28-15.73-9.61-27.6,9-22.78,28.06-38.64,28.06-38.64,22-23.07-7.37-81.85-7.57-86.87-1.37-34.47,19.09-73.56,24-84.06,4.42-9.39,7.62-19,10.88-28.72,1.7-5.08,24.57-38-21.47-115.48-4.66-7.83-3-9,7.58-22,15.07-18.67-.49-10.51,20.47-4.82,23.2,6.3,39.58,29.24,46,51.55,16.52,57.72-31.73,104.35-48.48,154.93C635.49,2680.5,638,2733.75,659,2764c12,17.27,47.29,22.89,54,38.86C718.91,2816.81,702,2839,712.47,2855.64Zm108.45-308c59.74,14.41,99.18,11.64,110.61,82.66,9,56-9.46,97.15-13.7,150.45-2.08,26.15,7.61,40.34,22.53,60.67.48.64,33.72,28.89,23.49,36.15-4.19,3-58-21.88-66.38-25.23-25.39-10.15-50.21-19.29-50.78-54.89-.71-45.33,26.07-91.68,21.89-138.94-2.47-28-9.49-56.51-35.53-71-16.41-9.1-77.87-2.12-83.76-15.56-9.3-21.2,23-37.64,33.73-37.58C791,2534.44,810.57,2545.13,820.92,2547.63ZM858.29,2324c6.09,11,6.63,74.81-16.31,63.79-6.27-3-7.37-12.06-9.12-30.44-1.23-12.91,3.79-27.6,13.91-38.5C852.73,2313.85,855.49,2318.92,858.29,2324Zm-131.66-8.4c-12.55,14.86-15.17-37.11-13-43.62,4.61-14,12.79-20.65,22.4-31.22,5.58-6.14,18-14.87,22.64-21.31,10.34-14.31,13.73-50.7,14.17-50.84,21.29-6.66-5.18,71.54-8,76-5.46,8.66-13.77,18.38-19.78,25.16C733.92,2289.12,730.54,2311,726.63,2315.59Zm24.35-2.85c-5.32-15.37,7.25-35.17,21.53-45.79,23.15-17.21,16.67-12.55,37.44,8.73,20,20.46,28.64,19.29,20.94,33.61-10.57,16.37-5,24.83-12.85,37h0C807.72,2353.8,754.78,2323.71,751,2312.74Zm12.27,41c14.36-10.62,31.72,18.47,49.3,17.59,3,1.76,3.92,4.8,4.74,7.89h0c-.45,15.66-29.87,88.52-46.38,94.78-2.8,1.06-26.71-41.67-27.42-43.8C744.27,2430.17,773.55,2346.11,763.25,2353.72ZM662.67,2224.43c1.31-1,3.67-3.21,4.34-1.35,3.6,10-.75,20.15-5.14,24.06-105,93.8,15,127.92,50,169.78,15.84,19,28.12,38.94,36.9,62.33h0c-.64,3.54.79,6.24,2.86,8.67,6.78,24.09-.84,36.92-17.35,63.21-21.61,34.42-48.16,65.7-54.82,107.78-3.14,19.84-3.38,46.38,1.94,65.15,2.81,9.9,28.58,35.43,30.18,45.62.89,5.67.07,8.35-1.81,9.16-3.17-1.87-6.72-2.62-10.28-3.33l-1.08-.67c-.53-2.1-1.78-3.22-4.21-2.76h0c-23-15.39-29.3-37.62-33.39-62.76-7.89-48.53,15.9-82.72,35.34-125.85,12.07-26.78,29.68-71.38,19.14-96-6-14.06-27.57-40.39-39-52.15-4.07-4.2-18.63-7.44-25.11-12.42-10.88-8.38-20.83-27.31-29.47-34.06C621.18,2385.89,561.76,2301.28,662.67,2224.43ZM483,2359.76c2-5.15,4.82-10,8.32-17,3.92,9,6.89,15.88,10,22.76,1.54,3.41.18,5.75-2.48,7.67a109.67,109.67,0,0,0-10.79,8.72c-4.1,3.82-7.21,2.75-8.2-2.72C478.62,2372.4,480.63,2365.94,483,2359.76Zm-19.05,97.87c-5.33-3.56,4.26-52,50.72-70.14,23.76-8.47,47.35,9.6,93.8,5.22,0,0,26.35,42.12-16.76,53.34a35.38,35.38,0,0,1-16.37.3C553.85,2441.75,488.73,2430.55,463.94,2457.63Zm22.84,175.81c6.73-23.68,18.41-44.25,22.89-68.79,2.21-12.07,9.55-55.32-19.37-89.16-8-4.35-7.78-16.71,4.81-19.56,10-2.48,15.43-1.71,15.43-1.71,71.21,6.29,70.23,73.93,37.49,122.66-6.4,9.53-17.38,23.11-22.25,34.13-9.47,21.44-13.38,25.31-13.72,44.15-.35,19.18,42.26,33.65-7.94,20.33C477.66,2668.47,480.58,2655.25,486.78,2633.44ZM326.41,2423l-4.7-1.46c-10.19-6.83-7.46-32.21-4.1-42.25,9.45-28.35,51.15-39.64,74.93-54.67,20.46-12.92,44.22-27.18,59.21-53.45,20-35,.39-34.08-1.63-67.19-2-32.3,48.41-44.85,47.72-31.64-.49,9.34-6.86.89-13,10.89-13.12,21.24,81.68,101.27-62.46,145.45C341.23,2353.5,340.34,2421.24,326.41,2423Zm29.43,294.78c-6.9-2.46-8.52-5.93-10.82-13.19-6.6-20.85-.31-19.83,11.21-31.28.68-.67,26.4-22,35.73-35.51,7.46-10.77,19.7-28.08,15.46-42.49C398.8,2566,320.76,2561.89,333,2532c15.19-37.19,49.17,22.5,60.82,32.77,34.65,30.58,22.48,32.73,24.55,74.9.22,4.52-3.59,11.44-1.58,17.61,6,18.47,18.23,20.81,18.29,23.52C391.63,2690.71,407.12,2736,355.84,2717.74ZM414.6,2052.6c3.45,1.38,9,7.59,7.37,10.93-7.66,16.16-5.57,35.94-11,53.18-6.85,21.69-12.24,34.68-26.2,52.76-21.47,27.8-48.53,49.75-75,72.36-17.56,15-32.85,29.06-47.79,45.76-14.69,16.43-33.8,38.52-43.73,58.27-5.65,11.24-11.15,26.33-10.06,39.3.51,6,12.06,29,8.44,32.37-12.62,11.77-25.94-42.76-26.07-50.64-.84-49.54,44.06-100.72,56.19-113.11,8.43-8.62,17.89-16.76,27.11-25C324.21,2184.06,364,2176.88,414.6,2052.6ZM470.81,1679c7.86-.91,15.8-2.17,23.27-4.91,5.2-1.9,31.43-22.84,34.68-20.28,12.06,9.49-43.63,52.38-50,56-11,6.27-19.92,13.89-32.2,20.14-4.14,2.11-14.13,9.1-18.86,7.29-3.7-1.42-4.45-6.94-7.21-9.21-9-7.42-18.82-3.71-24.09,3.83-6.43,9.21-32.53,64.32-61.42,73.91-5.29-7.25-6-20.22-7.25-28.84-3.21-23.1-3.44-28.22,20.91-57.53,2.49-3,23.56-22.32,42.6-33.08C419.77,1670.17,462.94,1679.88,470.81,1679Zm94.58-331.44c.41-.08.45,0,0,0Zm-10.85,7.76a18.53,18.53,0,0,1,10.42-7.67c-2.39,18.76,1.28,33.22,1.28,51.42-6.35,1.09-14.14-7.37-14.14-7.37C554.24,1380.08,546.56,1366.71,554.54,1355.28Zm-76.29,144.06c-8.66-12.62-9.88-30.41-4.52-43.67.87-1.68,1.75-3.45,2.65-5.29l.1-.18a8.39,8.39,0,0,0,.86-1.81c1.47-3.08,3-6.36,4.54-9.87,16.74-37.85,55-28.88,74.64-11.29-6.66.12-12.87.41-17.9,1-9.55,0-17.12,1-26.07,9.13-9.41,8.54-17.83,16.67-20.89,29.35C490.11,1473.13,486.5,1498.26,478.25,1499.34Zm28.11-16.28a4.59,4.59,0,0,1-3.86-1.74,124.68,124.68,0,0,1,4.15-20c4.51-15.08,18-19.06,22.17-22.18,2.5-1.89,45.34-8.42,34.08,11.44C551.37,1462.83,528.65,1482.8,506.36,1483.06Zm79.93-28.68c13.87-13.36,34.56-38,57-47.74a18.56,18.56,0,0,1,14.37-.27c4.21,1.72,6.93,3.58,8.19,3.67-23.14,6.83-39.57,19.34-49,33.22-26.78,30-59.35,100.15,66.92,108.16A40.52,40.52,0,0,1,714,1567.91a59.73,59.73,0,0,1,11.5,31.08c1.47,18.25-8.2,37.09-19.84,50-4.63,5.16-15.11,14.18-22.54,15.54-9.11,1.67-8.73-3-10.62-11.21-5.13-22.41-22.17-36.47-40.43-49.08C621.53,1597,582,1580.66,568.73,1545c0,0-17-33.45-3-61.22C570.13,1475,578.45,1464.26,586.29,1454.38Zm584.15-540.46c-5.56-7.8,22.14-42.14,29.83-30.61C1197.73,888.12,1182.85,931.33,1170.44,913.92Zm768.47-142.21c-13,14.55-67.92-16.69-74.77-26.46-15.86-22.62-18.25-54.24-34.42-77.88,16.73-15.16,69.5,16.22,78.8,32.28C1912.36,706.27,1941.45,768.88,1938.91,771.71Zm360.94,1374.08c12.42-6.54,2.15-13.4,3.71-14.74,5.42-4.62,3.63-9.91,1.81-15.27a.36.36,0,0,0-.11-.16c-6.55-5.21-28.62-19.78-18.12-46.87a139.23,139.23,0,0,1,34-52.26,8.92,8.92,0,0,0,2.78-8.21,3.5,3.5,0,0,1,2.08-4.08,3.66,3.66,0,0,1,4.41,1.48c8.31,10.78,29.42,18.71,27.42,49.38a21.29,21.29,0,0,1-2.29,8.26c-6.87,13.5-11.65,26-24.66,30.09-.06,0-.19.09-.16.15,19.5,35.63,13.92,43.84,13.89,43.9a42,42,0,0,1-17.5,19.37c-5.29,3.1-10,7.61-11.75,14.08,0,0,0,.06,0,.08-.17,2.39-.91,3.91-3.62,2.47a.37.37,0,0,0-.18,0C2238.36,2174,2275,2128.75,2299.85,2145.79Zm-152.91,403.15c-10.18,15.41-36.4,38.22-41.44,52.14-7.11-2.78-19-5.56-22.66-16.06-7.66-31.11-1.45-49.52,30.27-58C2128.08,2523.05,2164.16,2522.85,2146.94,2548.94Zm57.46,187c14.08-3.13,34.95,48.07,25.43,68.41C2216.16,2833.61,2154.38,2747.12,2204.4,2736Zm-242.85-121.84c-1.92-.78,4.21-15,1.91-25.16-3.71-16.49,15.34-32.55,20.18-42.51,5.83,9.53-4.29,30.67-4.29,30.67C1978.49,2583.05,1963.43,2614.9,1961.55,2614.14ZM910.11,2248.06c18,23.48,32.36,35.15,31.55,40.06-.29,1.77-.53,3.56-.76,5.37C895.47,2311.22,891.41,2267.3,910.11,2248.06Zm56,86.3h0c.08-.16.14-.37.21-.53-.24-.11-.52-.34-.73-.32a.41.41,0,0,1,.18-.22c.2-.06.52.21.78.33C966.43,2333.88,966.36,2334.29,966.16,2334.36Zm115.22,497.11c-4.92,41.59,43.4,70.73,43.4,70.73-50-.55-103.46-55.07-90.27-65.32,74.65-58,23.15-97.22,30.32-122.86,24.83-88.66-16.23-78.15-25.11-92.3-11.17-17.8-8-35.74-4.49-49.88,35.07,60.19,73.09,115.5,101.51,154.72C1129.35,2778,1087.55,2779.34,1081.38,2831.47Zm128.49,61.13c31.07,18.15-4.76,69.78,44.38,75.24.52,4.34-31,28.53-44.22,11.33C1189.17,2952,1206.35,2921.94,1209.87,2892.6ZM979.66,3029.23c-1.53,1.6,14.07,11.74,25.08,22,3.77,3.53,3.93,16.77,4,25.11q-15.5,5.48-31.91,11.1C975.47,3068.9,966.16,3037.08,979.66,3029.23Zm363.52-104.9a53.33,53.33,0,0,1-29.09,27.2c-6.9,2.71-14.66,6-23.41,9.84-13.15-4.17-36-15.26-42.16-25.36-10.59-17.27-2.17-47-13.38-64.93-8.07-12.92-23.17-19.17-33.13-30.78-11-12.84-4.26-30.49-2.51-34.49,24.41,23.65,72.39,62,144.52,92.52C1346.09,2899.2,1345.2,2919.94,1343.18,2924.33Zm295.42,188c-12.13,1.53-224.82,38.48-267-120.28-8.08-26.71-10.93-50.27-12.81-59.27,4-5.27,7.19-29.93,8.37-29.69,131.69,12.37,207.37-46.43,421.42-253.26,2.32-2.25,4.82-2.66,4.79.83-1.69,179.55,44.31,246,43.87,249.92C1770.53,3103.84,1638.6,3112.28,1638.6,3112.28Zm721-34.72c-3.68,4.21-12.24,3.46-20.14-3.84a11.31,11.31,0,0,1-3.7-7.2q13.35,4.23,26.15,8.58A16.63,16.63,0,0,1,2359.56,3077.56Zm38.37-129.77c-21.11-25.94-19.55-38.31-11.54-57.24,3.43-8.1,8.64-23.58,15.65-17.81,18.89,22.4,39.4,24.83,46.54,48.9l0,0c1,8.65-3.15,13.83-11.28,16.64-4.44,1.53-13.17,9.52-14,10.77C2421.92,2957.91,2408.25,2958.82,2397.93,2947.79Zm61,27.34c-1.05,4.48-3,8.77-4.85,13-3.85,9-4.8,17.91.8,26.63a18.56,18.56,0,0,1,1.35,2.67c3,6.95,2.21,8.19-8.3,8a34.94,34.94,0,0,1-25.1-14.3c-6.13-8.47-5.22-16.78,1.84-24.3,7.7-8.21,17.79-12.65,27.72-17.16C2457.67,2967.29,2460.23,2969.53,2458.92,2975.13Zm152-59c-6.47,12.28-32.34,9.48-46.54,7.14-3.94-.65-8.3-1.79-8.72-5.65-4-36.95-88.31-71.54-81.75-97.87.68-2.74,2.4-3.23,4.31-1.82C2527.46,2854.33,2649.87,2842.28,2610.92,2916.17Zm20.58,13.74a2.6,2.6,0,0,1-3.66-.36c-1.12-1.14-.6-2.23.14-3.5,52-89.29-102.45-101.33-134.82-133.49-15.23-8.2-9-14.19,19.56-70.62.89-1.75,2.46-3.31,4.75-3,2.74.4,3.07,2.71,4,5C2557.57,2814.16,2746.56,2824.69,2631.5,2929.91Zm148.94-930.25c-1.06,11.57,1.16,54.91-11.59,61-3.18,1.51-4.73,3.51-7.75,2.94-3.72-.7-21.31-5.42-20.73-64.23.16-16.27-1.23-32.57,1.73-48.71,1.21-6.61,14.12-2.66,14.12-2.66,6.94,1.46,24.27,18.25,24.22,51.71Zm-67.76-232.6c2.12-3,6.89,14.63,29.24,33.17,72.64,60.29,139.3,96.53,113.25,187.3h0c-9,29.87-53.7,64.27-55.28,60-9.91-27,15.61-75.78-22.69-117.1C2702.57,1875.7,2684.45,1806.86,2712.68,1767.06Zm-283.77,288.37c2,1-35.37-11.5-35.37-46.66,0-24,13-38.06,21-47,36.17-40.68,15.5-73,15.5-73,8,7.66,31.13,10.13,36.82,27.68C2482.67,1965.14,2427.6,1987.09,2428.91,2055.43Zm-57.19,261.43c-.9,3.06-2.44,5.44-5.88,6q-1.12-3.69-2.24-7.37c-7.41-66.13,75.34-127.5,78.66-160.49l0,0c4.11-5.27,8.53-2.9,12.5,4.51-1.14,5.47-5.47,10.93-.05,16.42-.14,1.11-1.26,12.93-3.08,17.86C2438.94,2228.11,2384.61,2273,2371.72,2316.86ZM2391,2368c-1.08,3-3.27,2.33-5.48,1.5-.93-8.06.32-18.66.29-28,8.09-74.83,67.77-88.73,85.62-155.48,1.2-4.49,2.05-9.05,4.18-13.24v.18c1.08.72,14.71,7.48,23.15,11.64a11.91,11.91,0,0,1,6.67,10.78C2504.35,2297.65,2427.8,2265,2391,2368Zm36.85,50.17c-2.8.67-3.87-2-5.13-4-1.8-2.77-7.93-14.28-8.17-18.31-10-53.36,35.92-73,82.16-114.74a34.77,34.77,0,0,0,7.28-9.33c35.38-66,31.68-6.75,16.38,16.75C2471.33,2363.93,2485.16,2404.59,2427.88,2418.18Zm51,58.64c-10.27-9.33-20.51-17.72-23.28-32-1.2-6.17-2.73-12.32-1.7-18.69.32-2,.9-4.09,3.18-4.53,2.6-.51,3.44,1.64,3.89,3.57,1.13,4.76,2.77,9.33,3.55,14.29,1.91,12.1,5.79,23.76,14.16,33.29C2479.37,2473.53,2479.93,2474.34,2478.93,2476.82Zm264.78,107c-18.71,13.61,10.48-25.13-113.9-43.15-13.72-2-3.58-10.94,1.77-12l.13-.15c18.71-6.29,26.25-15.71,46.47-22.28h.13c35,2.92,52.39,12.23,66.09,33.77,3.48,5.49,11.78,14.38,12.53,24.06C2757.51,2571.72,2760.2,2571.87,2743.71,2583.86Zm38.88-27.4c-4.18,9.88-8.74,6.44-14.38-3.24-24.82-54.58-70.39-57.87-76.34-57.79C2729,2464.07,2820.4,2467.15,2782.59,2556.46Zm-110-129.55c2.21-5.34,5.33-6,9.14-4.69,4.63,1.6,5.06,6,5.27,10.74,1.32,29-9.42,43.16-47.27,45.83a9.24,9.24,0,0,0-5.26,2.15c-43.16,36.43,62.83-6.84,63.22-7.17l-4.24,3.81a29,29,0,0,1-8.17,5.19c-8,3.4-24.14,10.3-24.14,10.3-24.38,6.74-36.25,31.79-81.08,24.35-3,.66-13.38,1.06-15.5,4.43-1.88,3,0,5.53,1.38,8.2,2.67,5.18,6.55,8,12.55,7.63,6.95-.44,12.46-3.61,20.29,2.9.73-.67.73-.48,0,.19,18.51,16.28,65.47,18.8,92.85,30.35,22.37,9.44,29.31,38.14,22.73,49.42l-48.24,43.51a5,5,0,0,1-5,1.14c-1.84-.65-2.72-2.29-2.18-5.31,5.1-28.31-8.53-64.69-80.58-62-9,.33-13.18-2.9-15.84-11.65a52.89,52.89,0,0,1-2.23-8.63c-2.15-17-8.57-34-27.13-56.58-4.42-5.38-4-6.59,1.9-9.62,3.53-1.81,7.26-3.2,9.81-6.45,1.67-2.14,3.88-2.12,6.28-1.55,4.55,1.07,8.77.59,11.1-4,2.54-5,4.64-12.57-.79-15-45.13-19.86,16.82-86,19.42-92.62C2585.86,2519.89,2665.48,2444.09,2672.56,2426.91Zm-85.39-81.74c-39.59,76.4-85.22,76.4-64.87,136.3.82,2.39-35.59.08-35.44-44,.4-114.63,57.61-128,63.26-184.59,1.87-18.67,3.34-37.3-8.54-54.25-22.4-32-99.3-43.62-96.16-121,4.31-65.71,27.56-96.29,33.74-113.76,14.55-41.19,5.74-50.67-1.34-63.29l-.05-.09a35.5,35.5,0,0,0-16.36-15.2c-56.67-25.69-105.21-20.06-104.81-104.86,0-2.79,24.12-113.18-8.15-164.38-4.23-6.71-9-11-2.14-15.14,51.37-30.5,48.8,14.28,43.71,83.58-2.51,34.21,79.47,48.18,81.39,48.72h0c55.35,11.18,54.11,32.28,56.37,39.57,14.48,46.74-30.72,101.94-18.78,177.46,2.33,14.71,14.68,34.5,32.32,44.49a16.47,16.47,0,0,1,6.42,6.3c2.5,4.5,1.84,7.88-1.59,12.25-47.43,60.45-37,96.74-17.09,115,28.67,27.34,75.85,53.6,85.34,94.46C2618.1,2238.74,2616.74,2288.12,2587.17,2345.17Zm176.34-56.56a28.72,28.72,0,0,1-4.06,33c-27.44,30.27-80.84,20.15-139.83,38.79-6.23,2-16.21,4.57-11.18-9.53,42.43-119,23.46-145.63,18.8-155.45-4.48-9.45-10.69-17.76-17.4-26.08-9.31-11.55-55.51-47.68-63.84-78.17-4.19-15.32-5.92-27.82,1.32-41.68,17.42-33.31,15.16-35.63,28.58-31,30.78,10.61,91.94,7.51,101.64-41a5.5,5.5,0,0,1,4.84-3.22c2.59-.2,2.3.94,1.21,4.92a.44.44,0,0,0,0,.1c-2.56,9-4.87,18-7.13,27-32.81,131,23.62,173.23,41.34,179.34h0C2687.27,2254.35,2730.9,2229.64,2763.51,2288.61Zm111-122.59a28,28,0,0,1-9.37,7.24c-18,8.64-82.31,33.6-148.42-11.25a44.93,44.93,0,0,1-10.63-10.86,73.8,73.8,0,0,1-6.19-11.53c-9.24-23.63-27.59-67.26-.44-157.94,0,0,14.54-63.37,16.2-64.25,3.86,4.79,9.38,7.28,14.45,10.39,2,1.22-5.58,34.27-6.55,69.09-5.23,188.75,126.76,156.93,165.84,140,.92-.4,1.92-.57,3.43,1.34C2886.93,2146.25,2881.85,2157.22,2874.47,2166Z" transform="translate(-161.35 -602.41)"/><path class="cls-23" d="M2157.23,1924.69c-11.85,19.28-.55,47.11,1.7,47.67l16.87,4.14a4.12,4.12,0,0,0,4.49-6.15c-14.37-24,3.12-51.64,20.21-75.65a4.12,4.12,0,0,1,7.31,3.57c-9.75,32.46-8.3,51.07-8.53,58.24-1,30.32,5.7,33.51,25.88,54.62,5.28,5.51,9.9,13.63,17.79,14,14.84.74,19.86-15.78,9.54-26a4.23,4.23,0,0,0-2.62-1.2c-8-.63-15.55,3-22.73-2-10.75-7.51-7.76-28.28-7-38.3,1.55-20,7.52-44.05,14.78-62.43,11-28,19-56.44,7-86.49-4.68-11.64-23.44-23.06-37.58-46.51a4.12,4.12,0,0,1-.58-2.47c.81-9.83,2.83-20.67,6.55-29.49,4.84-11.45,17.31-18.31,22-28,5.11-10.46,7.58-12.78-6.7-14.66-24.54-3.23-38.61,38.25-45.63,58.53-9.56,27.63,2.55,51.45,15.85,75.1,14.49,25.77,3.34,29.75-10.23,54C2177.67,1889.46,2166,1910.48,2157.23,1924.69Zm58.47-120.22c17.79,15.61,8.45,70.85.18,22.12a43.22,43.22,0,0,0-6.14-15.89c-.49-.78-.92-1.56-1.31-2.34C2206.08,1803.56,2211.68,1800.94,2215.7,1804.47Z" transform="translate(-161.35 -602.41)"/><path class="cls-23" d="M1597.35,771.58c6.33-5.79,42.82-55.15,23.14-51.57-44.27,8.08-85.39-5.24-128.75,12.71-19,7.85-42.77,12.62-56.31,28.53-50.33,59.17-112.87,24.92-142.5,46.22-20,14.36-51.46,32.95-56.39,57.74-7.33,36.8,12,23.26,26.68,12.75,11.78-8.45,22-19.43,37.35-19.84,61.2-1.62,86.28-25.93,110.14-31.58,32.7-7.75,73.88-15.62,104-19.73C1542.05,803.1,1575.53,791.56,1597.35,771.58Zm-305.56,74.68c-16.49,4.56-.42-21.58,6.62-25.11,5.09-2.54,48.85-7.74,53.09-1.13C1365.88,842.45,1297.58,844.67,1291.79,846.26Zm133.79-54c2,1.85,45.28-40.41,87-45.25,9.2-1.07,17.87-1.88,26.88-2.12.36,0,63,.38,53.18,9.15-25.45,22.65-52.74,29.13-84.29,37.1C1495.92,794.32,1416.76,824.35,1425.58,792.29Z" transform="translate(-161.35 -602.41)"/><path class="cls-23" d="M1346.58,1009.71c8.05-.64,21.91-3.82,28.73-7.91,15.35-9.2,110.31-73.49,97.29-132.11-2.3-10.33-17.84-9-28.4-8.41-15.38.91-20.82,9.72-28.66,25.07-15.52,30.38-23.92,55.35-52.52,74.42-19.79,13.2-48.47,24.4-59.49,48.15-5.72,12.35-5.71,27.23-7,40.41-.64,6.45,1.31,38.68,2.71,52.78a9.42,9.42,0,0,0,12,8.14l.13,0c6.46-2,10.51-9.56,13.31-13.1a9.44,9.44,0,0,0,1.89-7c-.77-6.25-3.2-12.67-3.52-18.79C1323.17,1073.4,1314.17,1012.3,1346.58,1009.71Zm82.9-120.19c2.65-6.69,6.61-19.42,16.2-11.21,11.33,9.7-5.66,34.66-12,41.55-5.49,6-14.66,15.77-17.45,5.49C1414.67,919.42,1427.11,895.5,1429.48,889.52Z" transform="translate(-161.35 -602.41)"/><path class="cls-23" d="M1893.89,1214.36c17.87,19,21.55-24.93,16.68-37-13.18-30.4-57.73,6.54-52.69-40.37,1.63-15.25,7.86-29.79,4.54-43.35-2.06-8.47-5.46-16.38-14.76-21.45-19.46-10.6-44,14.26-49.39,31.84-2.17,7.14-5,23.74,7.53,21.78,9.19-1.45,8.84-21.44,16-28.64,8.52-8.55,17-10.3,20.2,1.93,2.5,9.49-7.31,26.35-8.33,36.86-3.47,35.72,17.47,40.5,46.35,46.94C1903.52,1188.18,1886.81,1206.83,1893.89,1214.36Z" transform="translate(-161.35 -602.41)"/><path class="cls-23" d="M1789.62,829.42c-3.25,7.43-1.78,20.81-4.45,29.53-3.17,10.35-9.64,19-13.94,28.76-5.32,12-10,22.79-15.16,34.89-4.58,10.63-20.56,25.17-22.76,34.65-4.45,19.18,26.85,19,37,15.44,10.83-3.81,20.88-17.38,26.8-27.34,4.81-8.11,5.84-17.94,9.58-26.57,1-2.44,6.9-15.21,7.82-15.53,1.66-28.38-34.74-5.77,0-75.17C1823.15,810.85,1794.18,819,1789.62,829.42Zm4.53,76c-.46,13.32-5.44,29.31-13.54,39.85-2.52,3.27-9.21,11.74-13.44,13.71-5.94,2.77-9.91-5.37-14.35,3.2,7.21-13.91,17-25.71,24.28-39.79,2.78-5.39,6.79-19.81,11.38-21.49C1795.56,898.27,1802.29,904.86,1794.15,905.37Z" transform="translate(-161.35 -602.41)"/><path class="cls-23" d="M1713.47,1043.77c4.5.82,8.6,3.09,13.18,3.7,3.1.42,8.65-.86,11.55.47,6.48,3,9.83,12.13,16.36,14.46,7,2.48,14.88-1,22.17-.87,8.53.1,14.55.71,22.65-4.51,3.2-2.06,6.32-4.63,10.35-6.68a61.25,61.25,0,0,0,11.14-7c8-6.55,11.81-12.77,16.39-21.42,4.81-9.09,9-11.45,9.31-23l-8.17-2.35c-12,19.8-25.37,32.52-43.84,44.65-4.13,2.71-16.26,9.58-21.75,7.14-9.77-4.32,5.58-10.5,9.46-12.18,4.31-1.87,20.93-8.71,10.11-15.1-5.64-3.34-24.3,6.89-30.57,8.24-17,3.65-48.5,7.29-53.16-16.13-1.84-9.24,3.06-12.65,10.08-17,4.71-2.95,16.44-12,8-18.48-4.29-3.26-23.45,5.1-29,6.44-7.43,1.8-11.19,3.51-19.59-.39-11.67-5.41-26.06-22.89-25.71-36.71.25-9.72,5.71-6.69,13.85-6.64,12.87.08,24-5.15,35.82-9.7,9.28-3.59,20.11-6.42,22.33-17.27,1.09-5.27-1.32-10.48-8.56-9.12-4.39.83-5.51,6.08-8.24,9.23-6.8,7.88-18.21,11.35-28.26,12.67-6.72.87-12-.61-18.49-1.87-11.39-2.2-8-.19-11.45,9.72,1.9-5.39,2.64-12.71.47-18.19-1.24-3.13-3.47-4.92-4.58-7.64a4.32,4.32,0,0,0-4.83-2.68,19,19,0,0,0-6.85,2.79c-12,8.72-10.23,18.71-12.68,24.67-4.92,11.92.09,33.12,5.3,44.51,6.9,15.06,23.51,26.16,39.12,30.46,6.22,1.72,15,1.9,19.6,7.26,2.27,2.65,2.54,6.86,5.37,9.78s5,5.06,7.44,7.92c-.16-.18,6.12,7.91,5.58,7.49C1707.11,1043.36,1707.53,1042.68,1713.47,1043.77Zm-25.17-32.62-3.22,3.86c1.85-2.22,2.68-4,2.27-5.54a46.27,46.27,0,0,0,3.6,4.54C1690.14,1013.23,1689.26,1012.28,1688.3,1011.15Z" transform="translate(-161.35 -602.41)"/><path class="cls-23" d="M1739.05,833.53c-7.27,12.84-18.15,28.11-34.4,30-7,.81-14.53-3-20-3.78-11.24-1.54-22.74-.15-34-.71-7.67-.38-29.36-3.07-32.13,10.81-2.81,14.11,27.23,23,37.73,24.27,15,1.77,46.87,0,60.16-8.87,10.32-6.86,17.93-20.65,25.64-31a43.22,43.22,0,0,0,5.67-10.18c6.46-16.8,22-61.68,1-50.61-4.18,4.63-1.49,13.48-2.25,18.88C1745.38,820.74,1743.17,826.25,1739.05,833.53ZM1652.24,873c3-4.52,15.65-1.41,18.89-.44,3.42,1,7.66,2.8,11.42,2.8C1677,880.93,1647.32,880.43,1652.24,873Z" transform="translate(-161.35 -602.41)"/><path class="cls-23" d="M768.39,2979.49l0-.07a.2.2,0,0,0,0,.07Z" transform="translate(-161.35 -602.41)"/><polygon class="cls-23" points="177.03 1640.64 177.02 1640.64 177.02 1640.65 177.03 1640.64"/><polygon class="cls-23" points="97.18 1716.8 97.18 1716.8 97.17 1716.81 97.18 1716.8"/><path class="cls-23" d="M754.89,2045.76c54.05-17.33,148.64-42.22,125.66-120.85-11.51-39.39-22-69.57-19.7-109.73.55-9.84,10.34-9.52,10.85-18.61.75-13.54-4.36-29.48-6.36-43-4.56,26-22.59,43.78-23.14,74.94-.44,25.32,2.89,48.13,10.17,72.69,11.8,39.82,24.07,63.33-18.41,95.06-33.18,24.79-82,25.21-119.24,42.3-13.41,6.16-28,13.71-39.66,23.32-27.18,22.36-27.51,54.87-27.51,54.87C574.31,1962,756.71,2000.36,815.29,1921.2c0,0,21.29-18.51,4.14-95.69-5.36-24.09,6.09-46.11,12.65-58.13,8.2-15,51.45-36.48,34.38-50.05-14-11.09-56.48,32.14-63.51,46.38-24.12,48.92,23.28,105-6.56,151-31.81,49-120.86,30.77-165.49,79.12-26,28.12-39.06,67.09-26.73,103.75,5.83,17.35,36.15,64.25,58.89,62.58,18.42-1.35,13.65-14.43,5.26-23.11-7-7.25,2.3-40.62,14.83-55.29C702.29,2059.38,726.89,2054.74,754.89,2045.76Z" transform="translate(-161.35 -602.41)"/><path class="cls-23" d="M673.89,2160.19c.16.27.68,1.09,0,0Z" transform="translate(-161.35 -602.41)"/><polygon class="cls-23" points="541.28 1720.78 541.29 1720.78 541.29 1720.78 541.28 1720.78"/><polygon class="cls-23" points="793.17 2224.89 793.16 2224.88 793.16 2224.89 793.17 2224.89"/><polygon class="cls-23" points="789.17 2220.89 789.17 2220.88 789.17 2220.89 789.17 2220.89"/><path class="cls-23" d="M751,2421.75l.1-.1H751S751,2421.72,751,2421.75Z" transform="translate(-161.35 -602.41)"/><polygon class="cls-23" points="593.21 2276.84 593.21 2276.84 593.21 2276.84 593.21 2276.84"/><path class="cls-23" d="M588.44,2499.37h0v0Z" transform="translate(-161.35 -602.41)"/><path class="cls-23" d="M958.38,2831.47l0,0v0Z" transform="translate(-161.35 -602.41)"/><polygon class="cls-23" points="169.34 1700.95 169.32 1700.96 169.33 1700.96 169.34 1700.95"/><path class="cls-23" d="M456.58,2101.17c1.27,7.3,5.35,15.68,11,20.66,4.09,3.62,8.57,4.86,13.93,3.43,3.61-1,188.2-117.62,151.51-278.29-3.17-13.87-11.09-16-16.39-16.74-17.1-2.48-17.75,24.11-17.66,30.18.15,10.64.31,21.42-2.34,31.81-3.09,12.09-6,25.38-12.12,36.27C561,1970.26,505,2005.76,479.4,2036.22c-2.47,2.94-14.71,25.63-16,9.33-1-12.11,19.48-64.38,73.45-80.45,2.77-.83,2.65-9.53-.25-11.84-2.44-2-15.11.86-18,1.76-3.52,1.07-79.79,49.28-71.78,104.07,1.23,8.4,7,13.56,9.11,21.36C457.72,2087.33,455.37,2094.23,456.58,2101.17ZM502,2035.31c83.24-52.24,107.08-110.17,110.9-161.67.24-3.31.48-11.81,3.81-14,5.06-3.34,6.42,5.44,7,8.79,14.09,77-81.74,160.57-89.6,188.77-2.79,10-12.52,16.13-20.16,23.29s-39.43,32.91-39,6.51C475.35,2067.87,486.63,2044.94,502,2035.31Z" transform="translate(-161.35 -602.41)"/><path class="cls-23" d="M475.24,1823a150,150,0,0,1,29.9-35.23c8.86-7.72,7.36-11.23,33-25.73,1.33-.76,18.67-9.06,19.3-10.56,4.34-10.39-4.41-16.66-14.91-17.19-2,6-42.42,5.12-83,27.86s-89.59,72.27-95.14,120.69c-2,17.47-2.43,35.58.45,52.89,1.76,10.66,9.11,15.29,13.58,21.61,5.53,7.81,12.32,26,22.76,33.17,3.59,2.47,33.26,33.26,63.1-18,5.6-9.62,18.12-12.65,27.83-17.42,13.28-6.54,27.92-10.82,41.3-18.07,29-15.72,67.22-58.32,57.87-95.09-3.49-13.76-3.77-94.71-29.35-48.4-14.35,26-20.28,45.61-43.91,66.23-17.3,15.1-36.26,29-53.62,43.43-17.1,14.19-29.82,20.5-21.57-13.81C448.37,1866.5,463.31,1842.92,475.24,1823Zm8.5,90.1c10.37-9.89,45.64-27.66,89-85.23,4.31-5.72,9.39,31-6,52.74-12.9,18.27-30.73,39-51.43,48.39-8.92,4-45.6,20.41-48.13,12C463.29,1927.87,477,1919.53,483.74,1913.1ZM431.62,1972a6.93,6.93,0,0,1-7.51,8.47,55.68,55.68,0,0,1-9-1.53c-18.81-5.72-34.21-45.2-34.92-47.59-21.47-72.42,47.38-125.93,61.86-139.9,10.21-9.85,24.58-20.3,38-26.21,22.6-9.93,28.72-.7,22.19,6C389.19,1887.83,421.17,1927.72,431.62,1972Z" transform="translate(-161.35 -602.41)"/><path class="cls-23" d="M1543.87,2351.91l0,0,0,0Z" transform="translate(-161.35 -602.41)"/><path class="cls-23" d="M1874.59,1866.78s-.19.59-.19.59l.13.63C1875.29,1867.62,1876,1867.25,1874.59,1866.78Z" transform="translate(-161.35 -602.41)"/><path class="cls-23" d="M1205.09,1855.11c-.44-.13-1.06.34-1.6.55.27.49.55,1,.83,1.47l1.63-.64C1205.67,1856,1205.48,1855.22,1205.09,1855.11Z" transform="translate(-161.35 -602.41)"/></g><g id="necklace"><path class="cls-9" d="M1335.4,2997.36" transform="translate(-161.35 -602.41)"/><path class="cls-24" d="M1328.91,2946.59a9.94,9.94,0,0,0-10.14-2.44,6,6,0,0,0-3.71,5.43c0,.74-.07,1.65-.11,2.71l.64,21.17c.84,21.45,3.14,58.44,11.64,91.85,1.71,12.49,28.23,68.06,108.44,190.45,2.88,1,5.15,5,8.56,2.22,3.73-3,3.4-7.86,3.23-12.07-132.51-187.56-111.85-244.33-111.93-244.68s-.1-17.67-.13-18l-.16-18.59a29.83,29.83,0,0,0-6.33-18.09Z" transform="translate(-161.35 -602.41)"/><path class="cls-24" d="M1895.16,2905.53c.58,11.52,3,30.69,1.89,39.08-.42,52-4.74,81.38-4.74,81.38s.23,82-116.58,235.56c0,0,21.94,1.65,23,1.11,1.61-2.63,55.8-56.1,90.78-147,23.22-56.38,28.16-105.3,28.23-169.55-.27-11.7.13-18.29-.09-29.84a9.68,9.68,0,0,0-6.08-8.8l-12.26-4.89A3,3,0,0,0,1895.16,2905.53Z" transform="translate(-161.35 -602.41)"/></g><g id="glasses"><path class="cls-9" d="M2109.32,1754.72c-.25-7.24,10.15-42.61-26.52-46.3-5.3-.53-13.81-2.65-19.09-3.3-103.37-12.6-339.07-2.09-364.35,2-123.22,19.75-244.92,40.26-258.26,39.45-48.29-2.93-234.24-74.37-403.07-39.91-114.11,12.14-162.1,38.72-168.8,44.17-11.35,9.25-10.15,27.19-5,40.44a27.51,27.51,0,0,0,6,9.67c6.89,7.13,15.43,8.4,23.82,11.52a10.93,10.93,0,0,1,7.11,10.43c-.59,37.93,5,221.58,5.93,227.33,4.48,27.73-22.55,75.81,134.74,159.94,0,0,52.56,17.81,114,20.59,4,.18,73.69,6.33,124.45-33.79,8-6.33,12.27-12.6,16.6-21.61,3.66-7.62,84.91-310.91,85.5-312.86,7.17-23.71,21.12-19.64,26.18-20,17.19-1.13,22,23.57,23.41,36,.92,7.9,35.93,243.52,42.31,265,5.32,17.9,17,34,30.48,46.8,13.3,12.59,34.59,14.79,51.58,16.93,136.57,17.17,209.53,8.28,211.33,7.75,2.34-.69,76-1.51,140.39-21.8,13.78-4.34,28.17-9.24,39.92-17.94,4.78-3.54,14-8.92,16.49-14.2,1-2.1,15-20.65,17.43-27,3.28-8.74,8.41-16.77,11.82-25.49,3-7.8,3.77-15.59,5.27-23.62.25-1.31,2.12-2.06,2.29-3.18.21-1.4,32.74-251.47,33.42-258.39.66-6.61,1.77-13,8.33-15.75,4.72-2,26.21,0,33.64,0C2101.26,1807.74,2109.92,1772.07,2109.32,1754.72Zm-47.75-38.51-.07,0ZM1628.41,1719l-.5-.43c0-.16-.07-.3-.11-.45Zm-116.25,114.61c10.23-37.2,59.62-42.1,60.46-42.89,1.94-1.81,104.4-31.24,183.44-33.92,146.78-5,190.85,13,191,13.09,58.31,41.78-11.54,331.9-14.2,336-7.87,12.12-19.09,19.57-21.74,21.47-42.69,30.41-172.3,41.62-232,40-72.28-1.95-111.85-16.13-117.09-16.36-51.12-2.25-63.4-215.92-59.89-240Zm-202.63,110.54c-45.57,177.75-55,188.15-61.84,194.34-57.19,51.32-162.71,22-230.43-10.4-51.94-24.85-44-68.39-44.09-68.79-1-6.15-21.22-256.54,20-270.93,1.72-.6,24.58-15.81,147.72-23,94.62-5.57,128.31,10.86,130.39,12C1309.51,1798.09,1325.1,1883.39,1309.53,1944.15Z" transform="translate(-161.35 -602.41)"/></g></svg>